<?xml version="1.0" encoding="utf-8"?>
<!-- Generator: Adobe Illustrator 21.0.1, SVG Export Plug-In . SVG Version: 6.00 Build 0)  -->
<svg version="1.1" id="Layer_1" xmlns="http://www.w3.org/2000/svg" xmlns:xlink="http://www.w3.org/1999/xlink" x="0px" y="0px"
	 viewBox="0 0 802.5 226.8" style="enable-background:new 0 0 802.5 226.8;" xml:space="preserve">
<style type="text/css">
	.st0{fill:#B91E2B;}
	.st1{fill:#FAB600;}
	.st2{fill:#FFFFFF;}
</style>
<g>
	<g>
		<path d="M265.5,143h-34.1h-0.3v-0.3v-2.1v-0.3h0.3c3,0,5.1-0.8,6.3-2.3c1.2-1.6,1.8-4.5,1.8-8.7V84.5c0-4.3-0.6-7.2-1.7-8.8
			c-1.1-1.5-3.2-2.3-6.4-2.3h-0.3v-0.3V71v-0.3h0.3h27.9c8,0,14.5,1.6,19.1,4.9c4.7,3.3,7,7.6,7,13c0,7.7-4.9,13.2-14.5,16.4
			c5.4,1.2,9.8,3.6,13.3,7.2c3.6,3.8,5.4,8.2,5.4,13.1c0,5.4-2.2,9.8-6.7,13.1C278.6,141.4,272.7,143,265.5,143L265.5,143z
			 M249.9,107.1v20.7c0,4.6,0.5,7.7,1.5,9.3s2.9,2.4,5.8,2.4h6.1c4.2,0,7.6-1.4,10.3-4.1c2.6-2.7,4-6.4,4-11c0-5.2-1.9-9.5-5.7-12.6
			c-3.8-3.2-9-4.8-15.3-4.8h-6.7V107.1z M249.9,103.7h7.3c5.2,0,9.5-1.3,12.6-4c3.1-2.6,4.6-6.2,4.6-10.7c0-4.7-1.5-8.5-4.5-11.1
			s-7.4-4-12.9-4h-7.1V103.7L249.9,103.7z"/>
		<path d="M386.9,143h-0.3h-26.1h-0.3v-0.3v-2.1v-0.3h0.3c4.1,0,6-1.3,6-4c0-0.8-0.2-1.7-0.5-2.6l-6.8-19.7h-23.3l-5,14.2
			c-1.2,3.6-1.9,6.2-1.9,7.8c0,2.8,1.8,4.2,5.5,4.3h0.3v0.3v2.1v0.3h-0.2h-19.1h-0.3v-0.3v-2.1v-0.3h0.3c2.6-0.4,4.7-1.2,6.2-2.6
			c1.5-1.3,3-4.2,4.5-8.5l20.5-59.3l0.1-0.2h0.2h7.6h0.2l0.1,0.2l21.5,61.9c1.2,3.6,2.5,5.9,3.8,6.9s3.4,1.5,6.4,1.5h0.3v0.3v2.1
			L386.9,143L386.9,143z M337.5,108.8h19.9l-10-29L337.5,108.8L337.5,108.8z"/>
		<g>
			<path d="M479.7,142.5h-0.3h-2.3h-0.2l-0.1-0.1L425,80.6v49.5c0,3.4,0.7,5.9,2.1,7.4c1.4,1.5,3.8,2.2,7.2,2.2h0.3v0.3v2.1v0.3
				h-0.3h-22.5h-0.3v-0.3V140v-0.3h0.3c3.4,0,5.8-0.9,7-2.6c1.2-1.8,1.8-4.9,1.8-9.4V85.6c0-4.4-0.8-7.6-2.5-9.6
				c-1.6-1.9-4.4-3-8.2-3.4h-0.3v-0.3v-2.1v-0.3h0.3h19h0.2l0.1,0.1l45.9,55.2V84.1c0-4.3-0.6-7.3-1.9-9c-1.2-1.6-3.5-2.5-6.8-2.5
				h-0.3v-0.3v-2.1v-0.3h0.3h22.3h0.3v0.3v2.1v0.3h-0.3c-3.5,0-5.9,0.8-7.2,2.3c-1.3,1.6-2,4.5-2,8.7V142v0.5H479.7z"/>
			<path d="M562.1,144.8c-13.7,0-24.5-3.3-32.2-9.9c-7.7-6.6-11.6-15.4-11.6-26.1c0-7.5,1.7-14.4,5.1-20.4s8.1-10.9,14.1-14.4
				s12.5-5.3,19.3-5.3c4,0,8.5,0.7,13.3,2.1c3,0.8,5.3,1.3,6.8,1.3c2,0,3.2-0.7,3.8-2.2l0.1-0.2h0.2h2.3h0.3V70v21.2v0.3h-0.3h-2.1
				h-0.3v-0.3c-0.8-5.8-3.6-10.4-8.1-13.9c-4.6-3.5-10-5.2-16.1-5.2c-7.7,0-14.1,3-19,9s-7.4,13.8-7.4,23.3c0,10.4,2.9,19.2,8.6,26
				c5.7,6.8,12.9,10.3,21.5,10.3c8.1,0,12.1-2.4,12.1-7.3v-7.8c0-4.3-0.6-7.4-1.7-9.1c-1.1-1.7-3.2-2.5-6.1-2.5h-2.8h-0.3v-0.4v-2
				v-0.3h0.3h30h0.3v0.3v2.1v0.3h-0.3c-3.2,0-5.5,0.7-6.8,2.1c-1.3,1.4-2,3.8-2,7.3v19.3v0.3l-0.3,0.1c-1.7,0.5-5,0.9-9.7,1.2
				C568.4,144.6,564.7,144.8,562.1,144.8L562.1,144.8z"/>
			<path d="M662.4,144.8c-11.1,0-20.5-3.7-28.2-11.1c-7.6-7.4-11.5-16.6-11.5-27.3s3.9-19.8,11.5-26.9c7.6-7.2,17.2-10.8,28.6-10.8
				c11,0,20.5,3.7,28.1,10.9c7.6,7.3,11.5,16.3,11.5,26.8c0,10.7-3.9,19.9-11.6,27.3C683,141.1,673.5,144.8,662.4,144.8L662.4,144.8
				z M662.9,72.2c-8.5,0-15.4,3.1-20.5,9.4c-5.1,6.2-7.7,14.7-7.7,25c0,10.4,2.6,18.9,7.6,25.2c5,6.4,11.7,9.6,19.9,9.6
				c8.3,0,15.1-3.3,20.2-9.8c5.2-6.5,7.8-14.8,7.8-24.5c0-10.5-2.6-19-7.6-25.4C677.6,75.4,671,72.2,662.9,72.2L662.9,72.2z"/>
		</g>
		<path d="M802.4,143h-0.3H787h-0.2l-0.1-0.1c-3.1-3.6-6.9-9-11.3-16.1c-4.7-7.3-8.4-12.1-11-14.1s-5.5-3-8.7-3h-5.6v19.4
			c0,4.2,0.6,7.1,1.8,8.7c1.2,1.6,3.3,2.4,6.3,2.4h0.3v0.3v2.1v0.3h-0.3h-26.6h-0.3v-0.3v-2v-0.3h0.3c3.1,0,5.3-0.8,6.4-2.4
			c1.1-1.6,1.7-4.5,1.7-8.7V84.1c0-4.2-0.6-7-1.6-8.6c-1.1-1.5-3.2-2.3-6.4-2.3h-0.3v-0.3v-2.1v-0.3h0.3H762
			c7.5,0,13.6,1.8,18.2,5.4c4.5,3.6,6.8,8.2,6.8,13.8c0,8.7-5,14.7-14.8,17.8c2,1.4,4.1,3.2,6,5.4c2.1,2.4,5,6.5,8.4,12.2
			c3.8,6.2,6.9,10.3,9,12.2s4.3,2.9,6.6,3.1h0.3v0.3v2.1v0.2H802.4z M750,106.1h8.7c5.3,0,9.5-1.5,12.5-4.4s4.5-6.9,4.5-11.8
			c0-4.7-1.7-8.6-5-11.5c-3.3-2.9-7.8-4.4-13.4-4.4h-7.4L750,106.1L750,106.1z"/>
	</g>
	<g>
		<path d="M245.7,208.8c-3.4,0-6.1-1-8-3s-2.9-4.6-2.9-7.8v-15c0-1.7-0.2-3-0.7-3.6c-0.4-0.6-1.3-0.9-2.6-0.9h-0.3v-0.3v-0.9V177
			h0.3h11.3h0.3v0.3v0.9v0.3h-0.3c-1.3,0-2.2,0.3-2.6,0.9c-0.5,0.6-0.7,1.9-0.7,3.6v15.4c0,2.4,0.7,4.3,2,5.7
			c1.3,1.4,3.3,2.1,5.7,2.1c3.6,0,6.5-1.6,8.7-4.9v-18.2c0-1.7-0.2-2.9-0.7-3.6c-0.4-0.6-1.2-1-2.4-1h-0.3v-0.3v-0.9V177h0.3h11.1
			h0.3v0.3v0.9v0.3h-0.3c-1.2,0-2.1,0.3-2.6,1s-0.7,1.9-0.7,3.6v19c0,1.7,0.2,2.9,0.7,3.6c0.4,0.6,1.3,1,2.6,1h0.3v0.3v0.9v0.3h-0.3
			h-7.7h-0.3v-0.3v-3.5C253,207.3,249.5,208.8,245.7,208.8L245.7,208.8z"/>
		<path d="M308.9,208.1h-0.3h-1h-0.1l-0.1-0.1l-21.7-25.9v20.6c0,1.4,0.3,2.4,0.9,3s1.6,0.9,3,0.9h0.3v0.3v0.9v0.3h-0.3h-9.5h-0.3
			v-0.3v-0.9v-0.3h0.3c1.4,0,2.4-0.3,2.8-1c0.5-0.7,0.8-2,0.8-3.9v-17.8c0-1.8-0.3-3.2-1-4s-1.8-1.2-3.4-1.4H279v-0.3v-0.9V177h0.3
			h8h0.1l0.1,0.1l19.2,23.1v-17c0-1.8-0.3-3.1-0.8-3.7c-0.5-0.7-1.4-1-2.8-1h-0.3v-0.3v-0.9V177h0.3h9.5h0.3v0.3v0.9v0.3h-0.3
			c-1.4,0-2.4,0.3-2.9,0.9s-0.8,1.8-0.8,3.6v24.8L308.9,208.1L308.9,208.1z"/>
		<path d="M340.1,208.1h-0.3h-11.3h-0.3v-0.3v-0.9v-0.3h0.3c1.3,0,2.1-0.3,2.6-0.9s0.7-1.9,0.7-3.6v-19c0-1.8-0.2-3-0.7-3.7
			c-0.4-0.6-1.3-0.9-2.6-0.9h-0.3v-0.3v-0.9V177h0.3h11.3h0.3v0.3v0.9v0.3h-0.3c-1.2,0-2.1,0.3-2.6,1s-0.7,1.9-0.7,3.6v19
			c0,1.8,0.2,3,0.7,3.6s1.3,0.9,2.6,0.9h0.3v0.3v0.9V208.1L340.1,208.1z"/>
		<path d="M371.8,208.5h-0.2h-0.9h-0.2l-0.1-0.2l-9.7-24.7c-0.9-2.2-1.7-3.7-2.3-4.2c-0.6-0.5-1.5-0.8-2.7-0.9h-0.3v-0.3v-0.9V177
			h0.3h11.4h0.3v0.3v0.9v0.3h-0.3c-2.2,0-2.5,1-2.5,1.8c0,0.4,0.1,0.9,0.3,1.4l7.4,19l7-18.3c0.3-0.8,0.4-1.5,0.4-2
			c0-0.8-0.3-1.9-2.5-1.9h-0.3v-0.3v-0.9V177h0.3h9.1h0.3v0.3v0.9v0.3h0c-2.2,0-4,1.9-5.4,5.7l-9.3,24L371.8,208.5L371.8,208.5z"/>
		<path d="M422.1,208.1h-0.2h-22.6H399v-0.3v-0.9v-0.3h0.3c1.3,0,2.2-0.3,2.6-0.9c0.4-0.6,0.7-1.9,0.7-3.6v-19c0-1.8-0.2-3-0.7-3.7
			c-0.4-0.6-1.3-0.9-2.6-0.9H399v-0.3v-0.9V177h0.3h22.6h0.3v0.3v5.1v0.3h-0.3h-0.6h-0.2v-0.2c-0.3-1.4-0.7-2.3-1.3-2.7
			c-0.5-0.4-1.8-0.7-3.7-0.7h-8.8v12.5h8.5c1.1,0,1.9-0.2,2.3-0.5c0.4-0.4,0.7-1.1,0.9-2.2v-0.2h0.2h0.9h0.3v0.3v7.4v0.3h-0.3h-0.9
			H419l-0.1-0.2c-0.4-1.5-0.8-2.1-1.1-2.3c-0.3-0.2-1.1-0.4-3-0.4h-7.5v10.6c0,0.7,0.1,1.1,0.4,1.4c0.3,0.3,0.8,0.4,1.6,0.4h5.5
			c1.9,0,3.3-0.1,4-0.3c0.7-0.2,1.3-0.6,1.8-1.1s1-1.4,1.6-2.7l0.1-0.2h0.2h0.9h0.4l-0.1,0.3l-1.4,5.7L422.1,208.1L422.1,208.1z"/>
		<path d="M470.8,208.1h-0.3h-6.4H464l-0.1-0.1c-1.3-1.5-2.9-3.8-4.8-6.8c-2-3.1-3.5-5.1-4.6-5.9s-2.3-1.2-3.6-1.2h-2.3v8.1
			c0,1.7,0.2,2.9,0.7,3.6c0.5,0.6,1.3,1,2.6,1h0.3v0.3v0.9v0.3h-0.3h-11.3h-0.3V208v-0.9v-0.5h0.3c1.3,0,2.2-0.3,2.6-0.9
			c0.5-0.7,0.7-1.9,0.7-3.6V183c0-1.7-0.2-2.9-0.7-3.6c-0.4-0.6-1.3-0.9-2.6-0.9h-0.3v-0.3v-0.9V177h0.3h12.9c3.2,0,5.8,0.8,7.8,2.3
			s3,3.5,3,5.9c0,3.7-2.1,6.2-6.1,7.6c0.8,0.6,1.6,1.3,2.3,2.2c0.9,1,2.1,2.8,3.6,5.2c1.6,2.6,2.9,4.3,3.8,5.2
			c0.9,0.8,1.8,1.2,2.7,1.3h0.3v0.3v0.9L470.8,208.1L470.8,208.1z M448.6,192.2h3.6c2.2,0,4-0.6,5.2-1.8c1.2-1.2,1.9-2.9,1.9-4.9
			s-0.7-3.6-2.1-4.8c-1.4-1.2-3.3-1.8-5.6-1.8h-3L448.6,192.2L448.6,192.2z"/>
		<path d="M493.7,208.8c-1.4,0-3.3-0.4-5.5-1.2c-1.1-0.4-1.5-0.5-1.6-0.5s-0.6,0-0.9,1l-0.1,0.2h-0.2h-0.9h-0.3V208v-8.2v-0.2h0.3
			h0.9h0.3v0.3c0,2.2,0.8,3.9,2.2,5.2c1.4,1.3,3.1,2,5.1,2c1.8,0,3.3-0.5,4.4-1.4c1.1-0.9,1.6-2.2,1.6-3.7c0-1.2-0.5-2.3-1.4-3.4
			s-2.9-2.5-5.8-4.3c-2.5-1.5-4.1-2.6-5-3.5c-0.8-0.9-1.5-1.8-1.9-2.9c-0.4-1-0.6-2.2-0.6-3.4c0-2.4,0.8-4.4,2.5-5.9
			c1.6-1.5,3.8-2.3,6.3-2.3c1.4,0,3,0.3,4.6,0.8c0.9,0.3,1.3,0.3,1.5,0.3s0.3-0.1,0.3-0.1s0.1-0.1,0.2-0.6l0.1-0.2h0.2h0.9h0.3v0.3
			v7.1v0.3h-0.3H500h-0.2V184c-0.2-1.9-0.9-3.4-2.1-4.4c-1.2-1.1-2.7-1.6-4.6-1.6c-1.6,0-2.9,0.4-3.9,1.2c-1,0.8-1.4,1.8-1.4,3.1
			c0,1.2,0.4,2.3,1.2,3.3s2.7,2.4,5.5,4c3.3,1.9,5.6,3.6,6.8,5.1s1.8,3.2,1.8,5.1c0,2.5-0.9,4.6-2.7,6.3
			C498.4,207.9,496.2,208.8,493.7,208.8L493.7,208.8z"/>
		<path d="M531.6,208.1h-0.3H520h-0.3v-0.3v-0.9v-0.3h0.3c1.3,0,2.1-0.3,2.6-0.9s0.7-1.9,0.7-3.6v-19c0-1.8-0.2-3-0.7-3.7
			c-0.4-0.6-1.3-0.9-2.6-0.9h-0.3v-0.3v-0.9V177h0.3h11.3h0.3v0.3v0.9v0.3h-0.3c-1.2,0-2.1,0.3-2.6,1s-0.7,1.9-0.7,3.6v19
			c0,1.7,0.2,3,0.7,3.6s1.3,0.9,2.6,0.9h0.3v0.3v0.9V208.1L531.6,208.1z"/>
		<path d="M567.3,208.1H567h-11.1h-0.3v-0.3v-0.9v-0.3h0.3c1.3,0,2.1-0.3,2.6-1s0.7-1.9,0.7-3.6v-23h-4.3c-2.1,0-3.6,0.3-4.6,1
			c-0.9,0.6-1.4,1.7-1.5,3.1v0.3h-0.3h-0.9h-0.3v-0.3v-7v-0.3h0.3h0.9h0.1l0.1,0.1c0.8,0.7,2.3,1.1,4.5,1.1h16.4
			c2.3,0,3.9-0.4,4.8-1.1l0.1-0.1h0.1h1h0.3v0.3v7v0.3h-0.3H575h-0.2l-0.1-0.2c-0.4-1.6-1-2.7-2-3.3c-1-0.6-2.4-0.9-4.4-0.9h-4.5
			v23.1c0,1.8,0.2,3,0.6,3.6s1.2,0.8,2.5,0.8h0.3v0.3v0.9v0.4H567.3z"/>
		<path d="M610.5,208.1h-0.3h-11.4h-0.3v-0.3v-0.9v-0.3h0.3c1.4,0,2.4-0.3,2.9-1s0.7-1.9,0.7-3.6v-9.4l-6.6-10
			c-1.1-1.6-2-2.7-2.6-3.2s-1.6-0.8-2.7-0.8h-0.3v-0.3v-0.9v-0.3h0.3h12.1h0.3v0.3v0.9v0.3h-0.3c-2,0-3,0.4-3,1.2
			c0,0.4,0.2,0.9,0.6,1.5l6,8.9l4.7-7.3c0.7-1.1,1.1-2,1.1-2.8c0-0.6-0.2-1.4-1.8-1.4h-0.3v-0.3v-0.9v-0.3h0.3h8.6h0.3v0.3v0.9v0.3
			h-0.3c-1.1,0.1-2,0.3-2.5,0.7c-0.6,0.4-1.4,1.3-2.2,2.6l-7,10.7v9.5c0,1.8,0.2,3,0.7,3.6c0.4,0.6,1.3,0.9,2.5,0.9h0.3v0.3v0.9
			L610.5,208.1L610.5,208.1z"/>
	</g>
	<g>
		<path d="M243,41.5h-0.3h-11.3h-0.3v-0.3v-0.9V40h0.3c1.3,0,2.1-0.3,2.6-1s0.7-1.8,0.7-3.5V16.4c0-1.7-0.2-3-0.7-3.6s-1.3-1-2.6-1
			h-0.3v-0.2v-0.9v-0.3h0.3h11.4c3.8,0,6.8,0.8,9,2.5s3.4,3.8,3.4,6.4s-1,4.6-3,6.1c-1.9,1.4-4.8,2.1-8.4,2.1
			c-1.3,0-2.8-0.1-4.5-0.3v8.2c0,1.8,0.2,3,0.7,3.6c0.4,0.6,1.3,0.9,2.6,0.9h0.3v0.3v0.9L243,41.5L243,41.5z M239.4,25.4
			c1,0.3,2.2,0.4,3.6,0.4c2.3,0,4.1-0.6,5.4-1.7c1.3-1.1,2-2.7,2-4.6c0-2.1-0.7-3.9-2-5.2c-1.3-1.4-3.1-2.1-5.4-2.1h-3.6V25.4
			L239.4,25.4z"/>
		<path d="M301,41.5h-0.3h-6.4h-0.1l-0.1-0.1c-1.3-1.5-2.9-3.8-4.8-6.8c-2-3.1-3.5-5.1-4.6-5.9c-1.1-0.8-2.3-1.2-3.6-1.2h-2.3v8.1
			c0,1.7,0.2,2.9,0.7,3.6c0.5,0.6,1.3,1,2.6,1h0.3v0.3v0.9v0.3h-0.3h-11.3h-0.2v-0.3v-0.9v-0.3h0.3c1.3,0,2.2-0.3,2.6-0.9
			c0.5-0.7,0.7-1.9,0.7-3.6V16.6c0-1.7-0.2-2.9-0.7-3.6c-0.4-0.6-1.3-0.9-2.6-0.9h-0.3v-0.5v-0.9v-0.3h0.3h12.9
			c3.2,0,5.8,0.8,7.8,2.3s3,3.5,3,5.9c0,3.7-2.1,6.2-6.1,7.6c0.8,0.6,1.6,1.3,2.3,2.2c0.9,1,2.1,2.8,3.6,5.2
			c1.6,2.6,2.9,4.3,3.8,5.2c0.9,0.8,1.8,1.2,2.7,1.3h0.3v0.3v0.9v0.2H301z M278.9,25.5h3.6c2.2,0,4-0.6,5.2-1.8s1.9-2.9,1.9-4.9
			s-0.7-3.6-2.1-4.8s-3.3-1.8-5.6-1.8h-3V25.5L278.9,25.5z"/>
		<path d="M328,41.5h-0.3h-11.3h-0.3v-0.3v-0.9V40h0.3c1.3,0,2.1-0.3,2.6-0.9c0.5-0.6,0.7-1.9,0.7-3.6v-19c0-1.8-0.2-3-0.7-3.7
			c-0.4-0.6-1.3-0.9-2.6-0.9h-0.3v-0.3v-0.9v-0.3h0.3h11.3h0.3v0.3v0.9v0.3h-0.3c-1.2,0-2.1,0.3-2.6,1s-0.7,1.9-0.7,3.6v19
			c0,1.7,0.2,3,0.7,3.6s1.3,0.9,2.6,0.9h0.3v0.3v0.9V41.5L328,41.5z"/>
		<path d="M358.2,41.5h-0.3h-11.3h-0.3v-0.3v-0.9V40h0.3c1.3,0,2.1-0.3,2.6-0.9c0.5-0.6,0.7-1.9,0.7-3.6v-19c0-1.8-0.2-3-0.7-3.6
			c-0.4-0.6-1.3-0.9-2.6-0.9h-0.3v-0.4v-0.9v-0.3h0.3h21.5h0.3v0.3v5.4v0.3h-0.3h-0.7h-0.2v-0.2c-0.3-1.5-0.7-2.6-1.3-3
			c-0.3-0.3-1.2-0.7-3.6-0.7h-7.7v12.2h7.9c1,0,1.8-0.2,2.3-0.7s0.8-1.4,1-2.6v-0.2h0.2h0.9h0.3v0.3v8.6v0.3h-0.3H366h-0.3v-0.3
			c-0.1-2.1-1.1-3.2-3.1-3.2h-8v8.7c0,1.8,0.2,3,0.7,3.6s1.3,0.9,2.6,0.9h0.3v0.3v0.9V41.5L358.2,41.5z"/>
		<path d="M404.4,41.5h-0.3h-11.5h-0.3v-0.3v-0.9V40h0.3c1.4,0,2.4-0.3,2.9-1s0.7-1.9,0.7-3.6v-9.5l-6.6-10c-1.1-1.6-2-2.7-2.6-3.2
			s-1.6-0.8-2.7-0.8H384v-0.3v-0.9v-0.3h0.3h12.3h0.3v0.3v0.9v0.3h-0.3c-2,0-3,0.4-3,1.2c0,0.4,0.2,0.9,0.6,1.5l6,8.9l4.7-7.3
			c0.7-1.1,1.1-2,1.1-2.8c0-0.6-0.2-1.4-1.8-1.4h-0.3v-0.4v-0.9v-0.3h0.3h8.6h0.3v0.3v0.9v0.3h-0.3c-1.1,0.1-2,0.3-2.6,0.7
			c-0.6,0.4-1.4,1.3-2.2,2.6l-7,10.7v9.5c0,1.8,0.2,3,0.7,3.6c0.4,0.6,1.3,0.9,2.5,0.9h0.3v0.3v0.9L404.4,41.5L404.4,41.5z"/>
		<path d="M435.4,42.2c-1.5,0-3.3-0.4-5.5-1.2c-1.1-0.4-1.5-0.5-1.6-0.5c-0.4,0-0.7,0.3-0.9,1l-0.1,0.2h-0.2h-0.9h-0.3v-0.3v-8.2
			v-0.3h0.3h0.9h0.3v0.3c0,2.2,0.8,3.9,2.2,5.2s3.2,2,5.1,2c1.8,0,3.3-0.5,4.4-1.4c1.1-0.9,1.6-2.2,1.6-3.7c0-1.2-0.5-2.3-1.3-3.4
			c-0.9-1.1-2.9-2.5-5.8-4.3c-2.5-1.5-4.1-2.6-4.9-3.5c-0.8-0.9-1.5-1.8-1.9-2.9c-0.4-1-0.6-2.2-0.6-3.4c0-2.4,0.8-4.4,2.5-5.9
			c1.6-1.5,3.8-2.3,6.3-2.3c1.4,0,3,0.3,4.6,0.8c0.9,0.3,1.3,0.3,1.5,0.3s0.3-0.1,0.3-0.1s0.1-0.1,0.2-0.6l0.1-0.2h0.2h0.9h0.3v0.3
			v7.1v0.3h-0.5h-1h-0.2v-0.2c-0.2-1.9-0.9-3.4-2.1-4.4c-1.2-1.1-2.7-1.6-4.6-1.6c-1.6,0-2.9,0.4-3.9,1.2c-1,0.8-1.4,1.8-1.4,3.1
			c0,1.2,0.4,2.3,1.2,3.3s2.7,2.4,5.5,4c3.3,1.9,5.6,3.6,6.8,5.1s1.8,3.2,1.8,5.1c0,2.5-0.9,4.6-2.7,6.3
			C440.1,41.3,437.9,42.2,435.4,42.2L435.4,42.2z"/>
		<path d="M479.8,42.2c-5.8,0-10.4-1.4-13.7-4.2s-4.9-6.6-4.9-11.2c0-3.2,0.7-6.1,2.2-8.7c1.4-2.6,3.5-4.6,6-6.2
			c2.6-1.5,5.3-2.3,8.2-2.3c1.7,0,3.6,0.3,5.7,0.9c1.3,0.4,2.2,0.5,2.9,0.5c0.8,0,1.3-0.3,1.5-0.8l0.1-0.2h0.2h1h0.3v0.3v9v0.3H489
			h-0.9h-0.2v-0.2c-0.3-2.4-1.5-4.4-3.4-5.8c-1.9-1.5-4.2-2.2-6.7-2.2c-3.2,0-5.9,1.3-7.9,3.8c-2.1,2.5-3.1,5.8-3.1,9.8
			c0,4.4,1.2,8.1,3.6,10.9c2.4,2.9,5.4,4.3,9,4.3c3.4,0,5-1,5-3v-3.3c0-1.8-0.2-3.1-0.7-3.8s-1.3-1-2.5-1H480h-0.3v-0.3v-0.9v-0.3
			h0.3h12.7h0.3v0.3v0.9v0.3h-0.3c-1.3,0-2.2,0.3-2.8,0.8c-0.5,0.6-0.8,1.6-0.8,3v8.2v0.2l-0.2,0.1c-0.8,0.2-2.1,0.4-4.1,0.5
			C482.5,42.1,480.9,42.2,479.8,42.2L479.8,42.2z"/>
		<path d="M525.2,42.2c-4.7,0-8.8-1.6-12-4.7c-3.3-3.2-4.9-7.1-4.9-11.6c0-4.6,1.6-8.4,4.9-11.5c3.2-3.1,7.3-4.6,12.2-4.6
			c4.7,0,8.7,1.6,12,4.7c3.3,3.1,4.9,6.9,4.9,11.4c0,4.6-1.7,8.5-5,11.6C534,40.6,530,42.2,525.2,42.2L525.2,42.2z M525.5,11.4
			c-3.6,0-6.5,1.3-8.6,3.9c-2.1,2.6-3.2,6.2-3.2,10.5c0,4.4,1.1,7.9,3.2,10.6c2.1,2.7,4.9,4,8.3,4c3.5,0,6.3-1.4,8.5-4.1
			c2.2-2.7,3.3-6.2,3.3-10.3c0-4.4-1.1-8-3.2-10.7C531.6,12.8,528.8,11.4,525.5,11.4L525.5,11.4z"/>
		<path d="M581.7,41.5h-0.2h-22.7h-0.3v-0.3v-0.9V40h0.3c1.2,0,2-0.3,2.5-1s0.8-2,0.8-3.8V16c0-1.6-0.2-2.7-0.7-3.3
			c-0.4-0.6-1.3-0.9-2.6-0.9h-0.3v-0.2v-0.9v-0.3h0.3H570h0.3v0.3v0.9v0.3H570c-1.2,0-2,0.3-2.5,1s-0.8,1.9-0.8,3.5v20.3
			c0,1,0.2,1.7,0.6,2.1c0.4,0.4,1.3,0.6,2.6,0.6h6.2c1.8,0,3.1-0.3,3.9-0.9c0.7-0.6,1.4-2,2.1-4.1l0.1-0.2h0.2h0.9h0.4l-0.1,0.4
			l-1.9,6.6V41.5L581.7,41.5z"/>
	</g>
	<g>
		<path d="M97,226.8c21,0,45.2-9.9,64.5-26.5c20.7-17.8,32.5-40.4,32.5-62.1V3V0h-3H3H0v3v135.1c0,21.7,11.9,44.3,32.5,62.1
			C51.8,216.8,76,226.8,97,226.8L97,226.8z"/>
		<rect x="130.9" y="3.6" class="st0" width="59.4" height="95.8"/>
		<path class="st0" d="M3.6,102.6h59.5v112.7c-31.3-13.8-59.5-44.1-59.5-77.2V102.6z"/>
		<g>
			<g>
				<rect x="3.6" y="3.6" class="st1" width="59.4" height="95.8"/>
			</g>
		</g>
		<g>
			<g>
				<path class="st1" d="M130.9,102.6v112.7c31.3-13.8,59.5-44.1,59.5-77.2v-35.5H130.9z"/>
			</g>
		</g>
		<path class="st2" d="M101.9,203.5c0.2,0,1.4-0.6,1.4-2.5c0-1.5-0.9-2.4-2.3-2.4c-1.5,0-1.8,1.1-1.8,2
			C99.1,203,101.9,203.5,101.9,203.5z M90.4,205.8c-0.7-0.3-1.5-0.6-1.7-0.7c-0.2,0-1.9,0.7-1.9,2.7c0,2.2,1.1,3.3,3.1,3.3
			c1.9,0,2.3-1.4,2.3-2.5C92.3,206.8,91.5,206.3,90.4,205.8z M90.6,203.5c0.2,0,1.4-0.6,1.4-2.5c0-1.5-0.9-2.4-2.3-2.4
			c-1.5,0-1.8,1.1-1.8,2C87.8,203,90.6,203.5,90.6,203.5z M109.9,206.4c0,0.2,0,0.2,0.5,0.2h3.1c0.2,0,0.2,0,0.2,0s0-0.2,0-0.3v-6.7
			c-0.4,0.5-1.4,2-2.5,4C110.2,205.5,109.9,206.3,109.9,206.4z M127.8,3.8V3.6H66.2v0.1H66v212.9c7.9,3.2,16,5.4,23.9,6.2
			c8.7,1.1,16.4,0.4,24.6-1.8c4.4-1.1,8.8-2.5,13.2-4.3v-0.3c0.1,0,0.1-0.1,0.2-0.1V3.8H127.8z M82.8,212.3h-6.9v-0.9h0.2l1.5-0.4
			c0.6-0.2,0.6-0.2,0.6-0.8v-10c0-0.8,0-0.8-0.7-0.8h-1.8h-0.2v-0.2l-0.1-0.4v-0.2l0.2-0.1l4.2-1.2h0.1l0.1,0.1l0.3,0.2l0.1,0.1
			v12.8c0,0.4,0,0.6,0.7,0.7l1.5,0.4h0.2L82.8,212.3L82.8,212.3z M89.3,212.6c-2.7,0-4.4-1.6-4.4-4.4c0-2.2,1.4-3,2.2-3.4
			c0.2-0.1,0.4-0.2,0.4-0.3l0,0c0,0-0.2-0.1-0.3-0.2c-0.6-0.4-1.7-1-1.7-3.2c0-2.6,2.2-4,4.5-4c2.5,0,3.8,1.3,3.8,3.7
			c0,1.8-1.2,2.6-1.9,3c-0.1,0.1-0.2,0.1-0.2,0.2c0.1,0.1,0.2,0.1,0.4,0.2c0.8,0.4,2.4,1.1,2.4,3.5
			C94.5,210.7,92.5,212.6,89.3,212.6z M100.7,212.6c-2.7,0-4.4-1.6-4.4-4.4c0-2.2,1.4-3,2.2-3.4c0.2-0.1,0.4-0.2,0.4-0.3l0,0
			c0,0-0.2-0.1-0.3-0.2c-0.6-0.4-1.7-1-1.7-3.2c0-2.6,2.2-4,4.5-4c2.5,0,3.8,1.3,3.8,3.7c0,1.8-1.2,2.6-1.9,3
			c-0.1,0.1-0.2,0.1-0.2,0.2c0.1,0.1,0.2,0.1,0.4,0.2c0.8,0.4,2.4,1.1,2.4,3.5C105.8,210.7,103.8,212.6,100.7,212.6z M118.5,207.2
			l-0.8,1.1l-0.1,0.1h-1.4c-0.2,0-0.2,0-0.2,0s0,0.1,0,0.3v1.5c0,0.8,0,0.8,0.6,0.9l1,0.3l0.2,0.1v0.9h-5.6v-0.9l0.2-0.1l1.2-0.3
			c0.4-0.1,0.4-0.1,0.4-0.8v-1.4c0-0.1,0-0.3,0-0.4l0,0c0,0-0.1,0-0.2,0h-5.6l-0.1-0.1l-0.2-0.2l-0.1-0.1V208l0.4-1.5
			c0.3-0.6,0.6-1.1,1-1.7c0.5-0.8,1-1.7,1.6-2.6c1.4-2.1,2.5-3.8,3-4.3v-0.1h0.1l1.9-0.6h0.1l0.1,0.1l0.2,0.2l0.1,0.1v8.8
			c0,0.1,0,0.3,0,0.4l0,0c0,0,0.1,0,0.2,0h2l0.1,0.1l0.1,0.2l0.1,0.1H118.5z M101.7,205.8c-0.7-0.3-1.5-0.6-1.7-0.7
			c-0.2,0-1.9,0.7-1.9,2.7c0,2.2,1.1,3.3,3.1,3.3c1.9,0,2.3-1.4,2.3-2.5C103.6,206.8,102.8,206.3,101.7,205.8z"/>
		<g>
			<path d="M145.9,42.7c-0.1,1.5-1,0.2-1,0.2s-2.3-2.2-2.3-5.5c0.7-0.4,1-1.8,1.3-2c0.3-0.1,2.2-1,2.2-2c0-0.9-2.6-6.8-2.6-9
				l-2.2,3.1l-1.8-3.1l-1.4,3.6l-1.4-1.7c0,0-0.7,5.3-0.4,6.2c0.7,2.6,1.8,2.3,1.8,3.2c0,1.4-2.4,2.4-2.4,2.4
				c0.3,0.7,1.7,7.4,2.7,10.6c1.2,3.7,2,4,2.7,5.6c0.6,1.3,0.9,4.1,2.4,4.1c1.5,0,5.7-1.5,5.7-1.5c-1.4,1.3-2,15-4.3,15
				c-1.5,0-5.4,0.1-5.4,0.1s-1.7,2.7-3.1,8l3.3-1.9l-1,5.3l4-3l1.7,5.2l1.5-2.4c0,0-0.4-1.2,0.9-2.8c1.1-1.4,2.7-3.8,2.7-3.8
				l2.1,0.5c0,0,1.1-1.6,0.8-3.1l0.6-0.1l0.6-1.4l0.9-2.5c0.3-0.8,3.8-9.9,4.9-12.6c0.2-0.5,0.8-2.1,0.6-3c-0.1-0.5-0.2-1-0.2-1.9
				c0-0.8,0.7-2.4,2.1-3.8c0,0,0,0,0,0.1c0,1,0.7,1.2,1.1,1.2s0.6-0.2,0.9-0.3c0.4-0.3,1.1-0.8,2.6-0.8c0.2,0,0.4,0,0.5,0
				c-1.5,0.6-3.2,2.3-3.2,5.7c0,2.3,1,5,1.7,6.9c0.2,0.6,0.5,1.2,0.6,1.6c-0.1,0.1-0.2,0.2-0.4,0.3c-1.5,1.1-3,2.3-3.5,3.6
				c0,0,0,0,0,0.1c-2.3,0.4-4.5,0.6-4.5,0.6l-3.4,6.1l2.2-0.7l-2.1,4.6l4.1-1.7c0,0-0.9,3.1,0,4.3c0.1-0.1,1.5-1,1.5-1
				s0.7-1.7,1.1-2.1c0.4-0.4,3-3.1,3-3.1l0.6,1.6c3.1-1.5,8.8-8.9,9-10.2c0-1.3-2.2-3.2-2.2-6.2c0-1.7,0.7-2.4,0.7-2.4
				c0,2.1,4.9,6.7,5.4,8c-1.1,0.6-3.3,7.1-3.5,8c-0.9,0-5.6,1.1-5.6,1.1s-2.7,2.9-3.5,6.3l3.8-0.8l-0.7,4.4l1.7-0.4
				c0,0,1.6-2.6,4.2-2.8l2.3,3.9l1.6-1.8c0,0,0.2-5,1-5.6l1.8,0.7c5.1-3.7,5.8-17.1,5.1-17.5c-0.4-0.3-0.6,0.3-1.9-1.4
				c-2.2-2.7-1.8-8.9-3.9-11.1c0,0,0.2-0.2,1.2-0.2s4.5-1.3,4.6-5.6c0-5.3-4.4-7.2-4.4-7.2s0.5-0.9,0.5-2.1c0-4-4.4-4-4.4-4.5
				c2.1-0.4,4.3-2.9,4.5-4.7c0.5-5.1-5.2-7.9-7.6-5.5c0.8,0.7,2.6,1.4,2.6,3.3c0,3.2-3.5,4.9-3.5,4.9s0.6-1.3,0.6-2.8
				c0-1.6-0.9-4.3-4.3-4.3c-4.3,0-5.3,3.7-5.3,3.7c1.1,0,4.4-0.4,4.4,1.7c0,2.6-4.3,4.1-4.3,8.3s3.7,7.3,7.9,7.6
				c1.1,0.1,1.3,0.1,2.1,0.1c0.8,0,1.3,1,3.1,1c2.2,0,2.7-1,3.4-1s0.7,0.7,0.7,1.1c0,0.4,0.1,1.5-2.5,1.5c-2.8,0-7.9-1.4-12.5-1.4
				c-3.6,0-4.1,0.1-4.3,0.3c0.2-0.4,0.8-1.5,0.8-2.5c-0.8-0.4-1.6-2.8-2-2.8c3.9-3.5,3.3-6.6,3.3-7.3c-0.3-0.9-0.8-1-1.8-1
				c-0.9,0-1.5,0.4-1.5,0.4s-0.2-3.3-0.8-4.5c-1.2-1.9-7.4-3.2-9.7,0.4c0,0-0.9,2.2-1.2,2.9c-1.9-0.8-3,0.2-3,0.2s0.1,1,0.1,1.7
				c0,0.6-0.1,1.5-0.1,2.3s1.7,3.8,1.7,3.8c-0.9,1.4-4.2,2.9-4.2,2.9C144.9,40.2,145.9,42.7,145.9,42.7z"/>
			<path d="M155.3,23"/>
			<path class="st1" d="M147,42c0.4-0.3,1.5-2.1,2.6-2.1c-0.1,0.6-1.7,2-2.3,3.1c-0.5,1.1,0.4,2.2,0.8,3c-0.1-0.7,1.6-1.9,2.2-2.5
				c0.5-0.6,1-0.4,0.6,0.4c-0.5,1-1.9,2-1.9,3.5c0,0.8,0.6,1.4,1.4,1.8c0,0,0.3-2.6,1.4-1.9c0.4,0.3-1.7,4.3,0,5.9
				c0.3-1.2,2.9-3.2,2.9-3.7s-0.9-2.3,0-2.3c0.5,0,1,1.6,1.4,1.6s1.1-0.4,1.1-1s-1.6-3.3-0.6-3.3c0.5,0,1.5,1.8,1.8,1.8
				s0.5-0.2,0.8-1.6c0.3-1.4-1.3-2-0.7-3.4c0,0,1.4,0.7,1.9,1.5s1.4-1.4,1.4-2.2c-0.3-0.3-0.6-1.5-1.1-2.2c-0.5-0.6-1.1-0.8-1.1-1
				c0-0.4,0.5-0.5,2.3-2.4c1.8-2,1.5-4.3,1.5-4.6c-1.1-1-2,0.5-2.9,0s-0.5-3.3-0.7-4.2c0,0-1.2,1.9-1.4,1.6c-0.3-0.3,0.1-1.1,0.4-2
				s-1.3-1.4-1.3-1.4s-0.4,1.9-1,1.8c-0.6-0.1-0.5-1.9-0.5-1.9s-1.3-0.7-1.5,0.8c-0.3,1.8-1.2,0.3-1.6-0.5c-0.6,0.3-0.4,2.3-0.4,3.1
				c0,0.7-1.3-0.6-1.9-0.9c0.2,0.6-0.5,1.6-0.5,2.3s-2.4-0.4-2.9,0.1c0,0.3-0.3,2.6,0.1,3.9c0.6,1.7,1.5,2.4,1.5,3.4
				c0,0.9-1.4,1.4-4,3C146,39.5,146,42.8,147,42z M155.8,28.7c0.5,0.6,1.6,1.5,2.4,0.8c0.4,0.1,0.5,0.2,0.1,0.7s-0.4,1.7-1.2,1.6
				c-1.4-0.1-0.8-2.2-1.4-2.6L155.8,28.7z M154.4,28.6l0.2,0.4c-0.4,0.1-0.5,2.4-1.5,2.4c-1.3,0-0.3-1.6-1.3-1.9
				C151.7,29.4,153.6,29.3,154.4,28.6z M148.5,31.8c0-1.4,1-1.5,1.3-1.5c0.8,0,0.7,2.3,1.1,2.8s1.4,0.3,1.5,0.6
				c-0.3,0.5-1.3,1.1-1.3,1.8s0.6,0.9,0.9,0.9c0.4,0,2.2-0.5,2.2-1.5c0-0.5-0.4-0.8-0.6-1.2s-0.1-0.8-0.3-0.9
				c0.7-0.1,1.4-0.3,1.9-0.3s0.6,0.4,0.6,0.8c0,0.5-1,0.8-1,1.3s1.3,1.7,1.7,1.7c0.4,0,1.4-0.4,1.4-1s-0.4-1.4,0-1.8
				c0.2-0.2,0.8,0.2,0.8,0.2c0.8-0.8,1.3-2.4,2.9-2.6c1.6,2.8-1.7,3.8-1.7,3.8l-1.3-0.3c0.5,1.6-0.9,2.1-0.8,2.8
				c0.1,1.8-0.2,2.3-0.9,2.9c-0.4-0.1-1.3-0.2-1.4,0.2c0.8,1.5-1.6,3.1-1.4,3.7c-0.4-0.2-1.2-2-1.5-2.4s0.3-0.9-0.1-1.7
				c-0.2-0.5-1.2,0.1-1.4-0.8c-0.1-0.8,0.2-2.5-0.8-3.1C150.4,34.5,148.5,33.4,148.5,31.8z M174.9,38c0,1.2,0.6,2.9,2.5,2.9
				c2.1,0,2.2-1,3.4-1c1.2,0,1.8,1,1.8,2.1s-0.6,2.5-3.5,2.5c-5.2,0-6.6-1.4-12.7-1.4c-5.9,0-5.4,2.3-9.1,6.1
				c-3.8,3.8-6.7,6.5-6.7,6.5l0.2,0.6c-1.8,1.9-2.7,11.1-3.6,14.4c-0.9,3.2-5.9,4.6-5.9,4.6l-1.1,6.2l2.4-2.1c0,0-0.2-0.5-0.2-1.8
				c-0.1-1.4,3.7-4.1,5.5-5.3c-0.3,1.7-4.5,5.1-4.5,5.1s0.4,1.1,0.5,2.4c0.1,1.3,1,3.6,1,3.6l0.2-0.4c0,0,0.1-1.4,0.4-2
				c0.6-1.2,3.7-5.4,3.7-5.4l2,0.3c1.1-1.7-0.4-3.2-0.8-4.2c0.8-0.8,1.3-0.4,2.3,0.5c0.8-1.8,0.1-2-0.5-3.4s0.5-1.1,2.1-0.3
				c0.6-1,0.5-1.8-0.5-3.8c-0.9-2,1.1-1.1,2-0.4c0.7-1.1,0.4-1.3-0.5-3.4c-0.8-2.1,0.5-1.8,1.9-0.8c0.9-2.4,0.2-2-0.5-3.5
				c-0.6-1.6,0.9-1.4,2-0.5c1.1-1,0.2-1.3,0.2-3.8c0-1.8,2.1-5.3,5.8-6.6c1.3,1.3-1.7,1.5-1.7,2.9c0,0.8,0.6-0.9,3.5-0.9
				s3.1,1.4,3.8,1.4c0.8,0,0.1-2.1,0.1-2.1c3.5,0,2.3,3.4,2.3,7.6c0,4.2,5.8,8.2,5.9,10.5c-2.1,1.3-2.6,6.6-4.5,9.5
				c-1.1,1.2-2.3,1.3-3.7,1.8l-1.3,5.3c1.1-1.1,3.8-1.9,3.8-1.9c-1.3-2.6,0.4-3.2,1.1-3.8s3.5-4.3,3.5-4.3l0.5,0.5
				c0,0-1.4,4.1-3.7,5.1c-0.6,1.3,1.5,4.7,2,5.5c0.2-0.3,0.5-0.6,0.5-0.6s0.2-4.5,0.9-5.3c0.8-0.9,1.1-0.8,2.6-0.2
				c0.7-0.7,0.3-2.5-0.3-3.6c0.7-1.3,1.7,1.2,2.1,0.8c1.2-1.6-1.1-2.9-0.3-4.5c0,0,1.3,1.2,1.6,1c0.3-0.2,0.2-1.1-0.2-2
				c-1.6-3.8,0.8-1.3,1.1-1.4c0.5-0.3-0.1-2.7-0.7-3.3c-0.4,1.1-2.6,5.1-3.8,8c-0.2,0.5-1.4,0.7,0.2-4.2c1.9-5.8,4-4.9,4.9-4.6
				c-0.1-2.7-2.8-2.9-3-4.7c-2.7-1.1-0.5-10.4-6-12.6l7-0.5c-1.4,1.4-4,0.9-4,0.9s0,0.8,2.1,0.8s3.8-2,3.8-4.6
				c0-1.9-2.3-6.2-4.6-6.2c-1.9,0-2.6,2.9-3.1,2.6c-1.1-0.6-0.3-1.1,0.1-1.8c1.4-2.5,3.8-1.9,3.8-3.9c0-3.8-4.8-3.9-5.5-3.2
				c-0.6,0.6,2.2,0,2.2,2.4c0,0.4,1.4-1.2,1.4-1.1C178.8,33,174.9,34.3,174.9,38z M169.5,36.5c0.5,1,5,0.7,5-3.4
				c0-2.2-1.8-2.6-1.8-3.2c0-1.5,8.1-2.1,8.1-6c0-2-0.6-3-0.6-3s0.2,3.1-0.8,3.1c-1.5,0-0.2-1.8-0.2-2.7c0-3.3-3.5-2.6-3.5-2.6
				s2.1,0.1,2.1,3.4c0,4.2-6.2,6.8-6.6,6.3c-0.5-0.5,1.7-1.9,1.7-4.2c0-1.1-0.5-3.5-2.9-3.5c-2.9,0-4.7,2-3.6,1.8s3.4,0.6,3.4,2.6
				c0,3.3-4.4,4.1-4.4,8.3c0,5.3,5.3,6.5,7,6.5s2-0.2,2-0.2c-0.4-0.5-0.3-1.7-0.3-1.7s-0.9,0.3-2,0.3c-4.1,0-4.5-3.1-4.5-4.1
				s1.1-3.1,2.7-2.9C173.8,31.5,171.7,35.3,169.5,36.5z M165.6,70.9c0.5-0.7,1.4,1.7,1.4,1.7c2.1-1.9-0.2-2.9,0.5-3.5
				c0.9-0.8,2.4,0.5,2.4,0.5c1.1-1-0.6-2-0.1-2.6c1-1.3,1.3-0.1,2-0.4c0.7-0.3,1.4-0.9,0.7-1.9c-0.8-1-3.2-5.3-1.1-8.4
				c0,0-1.4,0.5-1.7,1.6c-0.3,1.1,0.8,6.8,0.8,7.7l-6.2,5.3c0,0-0.5-0.5,0.4-1.5c0.8-1.1,4.7-4.3,4.7-4.3c-1-1.3,0.5-4.5-1.5-5.7
				c-0.5-0.2-2-0.7-0.8-1.6c0.8-0.6,2.2-0.3,2.2-3s-2.5-2.9-2.5-2.9c0.3-0.8,2.5-0.6,3.1-1.4c-1.1-0.5-1.1-0.6-2-0.6
				c-0.8,0-3.2,1.2-3.2,4.9s2.7,8.5,2.3,8.9c-0.5,0.5-3.3,2.3-3.9,3.8c-0.6,1.4-3.9,3.6-3.9,3.6l-3.2,5.2l2.1-1.2c0,0,0.8-2.5,2-3.3
				c1.8-1.1,3.4-2.9,3.7-2.6c0.3,0.3-1.4,2.5-3.1,3.4c-0.5,1.1-1.8,4.9-1.7,5.7c0,0,3.8-4.5,4.8-5c1.1-0.5,1.4,0.9,1.4,0.9
				C166.6,73,165.1,71.6,165.6,70.9z M158.4,69.7c0.7-0.6,2.1-0.8,3-1.7c-1.8,0.4-3.5,0.9-3.5,0.9l-2.1,3.2l1.7-0.7
				C157.4,71.4,157.7,70.3,158.4,69.7z M140.9,74.4c0,0,2-0.5,3.6-1.3c-1.7,0.2-4.4,0.2-4.4,0.2l-2.4,5.1l2.4-1.4
				C140.1,77,140,74.7,140.9,74.4z M137.4,42.2c0,1.8,2.3,2.6,2.5,3.5s-1.8-0.6-1.8-0.3c0.3,2.5,2.4,2.8,3.2,4.1
				c0.5,0.8-1.9-0.3-1.9-0.1c0.5,2.9,3.6,1.8,4.1,3.8c0.3,1.1-1.9-0.6-2,0.3c0,0.6,1.2,4,1.8,4.1c0.7,0.2,2.9-0.7,3.8-1.1
				c1-0.4,2.9-0.8,3.1-1.7c-1.1-1.7-3.8-5.5-4.2-9c-2.2-2.3-4.4-5.7-4.4-8.5s0.8-5,0.8-5l-3.1-5.8l-0.6,2.6c0,0,2.9,2.7,2.8,3.6
				c-0.1,0.9-0.8,3.7-0.8,3.7c-0.5,0.8-0.4-3.6-0.4-3.6l-3.3-4.2c0,0-0.2,2.8,0,3.6c0.4,1.6,1.8,2.4,1.8,3.4s-1.3,2.6-2,3
				c-0.2,1.2,2.2,2.4,2.3,3.5C138.7,42.9,137.4,41.7,137.4,42.2z M142.9,35.2c0.5-0.8,2.3-1.2,2.2-1.9s-2.2-5.5-2.2-6.7l-1.3,2.5
				c0,0,2,2.8,2,3.7C143.5,33.7,142.7,33.9,142.9,35.2z M173.5,74c-2.2,0.4-5,1.1-5,1.1l-2.5,4.1l2.9-0.6c0.3-1.4,0.4-2.2,1-2.7
				C171.2,74.7,173.1,74.6,173.5,74z"/>
		</g>
		<g>
			<path d="M19.7,130.1c-0.1,1.5-1,0.2-1,0.2s-2.3-2.2-2.3-5.5c0.7-0.4,1-1.8,1.3-2c0.3-0.1,2.2-1,2.2-2c0-0.9-2.6-6.8-2.6-9
				l-2.2,3.1l-1.8-3.1l-1.4,3.6l-1.4-1.7c0,0-0.7,5.3-0.4,6.2c0.7,2.6,1.8,2.3,1.8,3.2c0,1.4-2.4,2.4-2.4,2.4
				c0.3,0.7,1.7,7.4,2.7,10.6c1.2,3.7,2,4,2.7,5.6c0.6,1.3,0.9,4.1,2.4,4.1s5.7-1.5,5.7-1.5c-1.4,1.3-2,15-4.3,15
				c-1.5,0-5.4,0.1-5.4,0.1s-1.7,2.7-3.1,8l3.3-1.9l-1,5.3l4-3l1.7,5.2l1.5-2.4c0,0-0.4-1.2,0.9-2.8c1.1-1.4,2.7-3.8,2.7-3.8
				l2.1,0.5c0,0,1.1-1.6,0.8-3.1l0.6-0.1l0.6-1.4l0.9-2.5c0.3-0.8,3.8-9.9,4.9-12.6c0.2-0.5,0.8-2.1,0.6-3c-0.1-0.5-0.2-1-0.2-1.9
				c0-0.8,0.7-2.4,2.1-3.8c0,0,0,0,0,0.1c0,1,0.7,1.2,1.1,1.2c0.4,0,0.6-0.2,0.9-0.3c0.4-0.3,1.1-0.8,2.6-0.8c0.2,0,0.4,0,0.5,0
				c-1.5,0.6-3.2,2.3-3.2,5.7c0,2.3,1,5,1.7,6.9c0.2,0.6,0.5,1.2,0.6,1.6c-0.1,0.1-0.2,0.2-0.4,0.3c-1.5,1.1-3,2.3-3.5,3.6
				c0,0,0,0,0,0.1c-2.3,0.4-4.5,0.6-4.5,0.6l-3.4,6.1l2.2-0.7l-2.1,4.6l4.1-1.7c0,0-0.9,3.1,0,4.3c0.1-0.1,1.5-1,1.5-1
				s0.7-1.7,1.1-2.1c0.4-0.4,3-3.1,3-3.1l0.6,1.6c3.1-1.5,8.8-8.9,9-10.2c0-1.3-2.2-3.2-2.2-6.2c0-1.7,0.7-2.4,0.7-2.4
				c0,2.1,4.9,6.7,5.4,8c-1.1,0.6-3.3,7.1-3.5,8c-0.9,0-5.6,1.1-5.6,1.1s-2.7,2.9-3.5,6.3l3.8-0.8l-0.7,4.4l1.7-0.3
				c0,0,1.6-2.6,4.2-2.8l2.3,3.9l1.6-1.8c0,0,0.2-5,1-5.6l1.8,0.7c5.1-3.7,5.8-17.1,5.1-17.5c-0.4-0.3-0.6,0.3-1.9-1.4
				c-2.2-2.7-1.8-8.9-3.9-11.1c0,0,0.2-0.2,1.2-0.2c0.9,0,4.5-1.3,4.6-5.6c0-5.3-4.3-7.2-4.3-7.2s0.5-0.9,0.5-2.1c0-4-4.4-4-4.4-4.5
				c2.1-0.4,4.3-2.9,4.5-4.7c0.5-5.1-5.2-7.9-7.6-5.5c0.8,0.7,2.6,1.4,2.6,3.3c0,3.2-3.5,4.9-3.5,4.9s0.6-1.3,0.6-2.8
				c0-1.6-0.9-4.3-4.3-4.3c-4.3,0-5.3,3.7-5.3,3.7c1.1,0,4.4-0.4,4.4,1.7c0,2.6-4.3,4.1-4.3,8.3s3.7,7.3,7.9,7.6
				c1.1,0.1,1.3,0.1,2.1,0.1s1.3,1,3.1,1c2.2,0,2.6-1,3.4-1c0.7,0,0.7,0.7,0.7,1.1s0.1,1.5-2.5,1.5c-2.8,0-7.9-1.4-12.5-1.4
				c-3.6,0-4.1,0.1-4.3,0.3c0.2-0.4,0.8-1.5,0.8-2.5c-0.8-0.4-1.6-2.8-2-2.8c3.9-3.5,3.3-6.6,3.3-7.3c-0.3-0.9-0.8-1-1.8-1
				c-0.9,0-1.5,0.4-1.5,0.4s-0.2-3.3-0.8-4.5c-1.3-1.9-7.4-3.2-9.7,0.4c0,0-0.9,2.2-1.2,2.9c-1.9-0.8-3,0.2-3,0.2s0.1,1,0.1,1.7
				c0,0.6-0.1,1.5-0.1,2.3s1.7,3.8,1.7,3.8c-0.9,1.4-4.2,2.9-4.2,2.9C18.8,127.6,19.7,130.1,19.7,130.1z"/>
			<path d="M29.1,110.4"/>
			<path class="st1" d="M20.8,129.4c0.4-0.3,1.5-2.1,2.6-2.1c-0.1,0.6-1.7,2-2.3,3.1c-0.5,1.1,0.4,2.2,0.8,3
				c-0.1-0.7,1.6-1.9,2.2-2.5c0.5-0.6,1-0.4,0.6,0.4c-0.5,1-1.9,2-1.9,3.5c0,0.8,0.6,1.4,1.4,1.8c0,0,0.3-2.6,1.4-1.9
				c0.4,0.3-1.7,4.3,0,5.9c0.3-1.2,2.9-3.2,2.9-3.7s-0.9-2.3,0-2.3c0.5,0,1,1.6,1.4,1.6s1.1-0.4,1.1-1s-1.6-3.3-0.6-3.3
				c0.5,0,1.5,1.8,1.8,1.8s0.5-0.2,0.8-1.6s-1.3-2-0.7-3.4c0,0,1.4,0.7,1.9,1.5c0.5,0.8,1.4-1.4,1.4-2.2c-0.3-0.3-0.6-1.5-1.1-2.2
				c-0.5-0.6-1.1-0.8-1.1-1c0-0.4,0.5-0.5,2.3-2.4c1.8-2,1.5-4.3,1.5-4.6c-1.1-1-2,0.5-2.9,0s-0.5-3.3-0.7-4.2c0,0-1.2,1.9-1.4,1.6
				c-0.3-0.3,0.1-1.1,0.4-2s-1.3-1.4-1.3-1.4s-0.4,1.9-1,1.8c-0.6-0.1-0.5-1.9-0.5-1.9s-1.3-0.7-1.5,0.8c-0.3,1.8-1.2,0.3-1.6-0.5
				c-0.6,0.3-0.4,2.3-0.4,3.1c0,0.7-1.3-0.6-1.9-0.9c0.2,0.6-0.5,1.6-0.5,2.3s-2.4-0.4-2.9,0.1c0,0.3-0.3,2.6,0.1,3.9
				c0.6,1.7,1.5,2.4,1.5,3.4c0,0.9-1.4,1.4-4,3C19.8,126.9,19.8,130.2,20.8,129.4z M29.6,116.1c0.5,0.6,1.6,1.5,2.4,0.8
				c0.4,0.1,0.5,0.2,0.1,0.7s-0.4,1.7-1.2,1.6c-1.4-0.1-0.8-2.2-1.4-2.6L29.6,116.1z M28.2,115.9l0.2,0.4c-0.4,0.1-0.5,2.4-1.5,2.4
				c-1.3,0-0.3-1.6-1.3-1.9C25.5,116.8,27.4,116.6,28.2,115.9z M22.3,119.2c0-1.4,1-1.5,1.3-1.5c0.8,0,0.7,2.3,1.1,2.8
				c0.4,0.5,1.4,0.3,1.5,0.6c-0.3,0.5-1.3,1.1-1.3,1.8s0.6,0.9,0.9,0.9c0.4,0,2.2-0.5,2.2-1.5c0-0.5-0.4-0.8-0.6-1.2
				c-0.2-0.4-0.1-0.8-0.3-0.9c0.7-0.1,1.4-0.3,1.9-0.3s0.6,0.4,0.6,0.8c0,0.5-1,0.8-1,1.3s1.3,1.7,1.7,1.7s1.4-0.4,1.4-1
				s-0.4-1.4,0-1.8c0.2-0.2,0.8,0.2,0.8,0.2c0.8-0.8,1.3-2.4,2.9-2.6c1.6,2.8-1.7,3.8-1.7,3.8l-1.3-0.5c0.5,1.6-0.9,2.1-0.8,2.8
				c0.1,1.8-0.2,2.3-0.9,2.9c-0.4-0.1-1.3-0.2-1.4,0.2c0.8,1.5-1.6,3.1-1.4,3.7c-0.4-0.2-1.2-2-1.5-2.4s0.3-0.9-0.1-1.7
				c-0.2-0.5-1.2,0.1-1.4-0.8c-0.1-0.8,0.2-2.5-0.8-3.1C24.3,121.9,22.3,120.8,22.3,119.2z M48.7,125.4c0,1.2,0.6,2.9,2.5,2.9
				c2.1,0,2.2-1,3.4-1s1.8,1,1.8,2.1s-0.6,2.5-3.5,2.5c-5.2,0-6.6-1.4-12.7-1.4c-5.9,0-5.4,2.3-9.1,6.1c-3.8,3.8-6.7,6.5-6.7,6.5
				l0.2,0.6c-1.8,1.9-2.7,11.1-3.6,14.4c-0.9,3.2-5.9,4.6-5.9,4.6l-1.1,6.2l2.4-2.1c0,0-0.2-0.5-0.2-1.8c-0.1-1.4,3.7-4.1,5.5-5.3
				c-0.3,1.7-4.5,5.1-4.5,5.1s0.4,1.1,0.5,2.4s1,3.6,1,3.6l0.2-0.4c0,0,0.1-1.4,0.4-2c0.6-1.2,3.7-5.4,3.7-5.4l2,0.3
				c1.1-1.7-0.4-3.2-0.8-4.2c0.8-0.8,1.3-0.4,2.3,0.5c0.8-1.8,0.1-2-0.5-3.4s0.5-1.1,2.1-0.3c0.6-1,0.5-1.8-0.5-3.8
				c-0.9-2,1.1-1.1,2-0.4c0.7-1.1,0.4-1.3-0.5-3.4c-0.8-2.1,0.5-1.8,1.9-0.8c0.9-2.4,0.2-2-0.5-3.5c-0.6-1.6,0.9-1.4,2-0.5
				c1.1-1,0.2-1.3,0.2-3.8c0-1.8,2.1-5.3,5.8-6.6c1.3,1.3-1.7,1.5-1.7,2.9c0,0.8,0.6-0.9,3.5-0.9s3.1,1.4,3.8,1.4
				c0.8,0,0.1-2.1,0.1-2.1c3.5,0,2.3,3.4,2.3,7.6s5.8,8.2,5.9,10.5c-2.1,1.3-2.6,6.6-4.5,9.5c-1.1,1.2-2.3,1.3-3.7,1.8l-1.3,5.3
				c1.1-1.1,3.8-1.9,3.8-1.9c-1.3-2.6,0.4-3.2,1.1-3.8c0.7-0.6,3.5-4.3,3.5-4.3l0.5,0.5c0,0-1.4,4.1-3.7,5.1c-0.6,1.3,1.5,4.7,2,5.5
				c0.2-0.3,0.5-0.6,0.5-0.6s0.2-4.5,0.9-5.3c0.8-0.9,1.1-0.8,2.6-0.2c0.7-0.7,0.3-2.5-0.3-3.6c0.7-1.3,1.7,1.2,2.1,0.8
				c1.2-1.6-1.1-2.9-0.3-4.5c0,0,1.3,1.2,1.6,1s0.2-1.1-0.2-2c-1.6-3.8,0.8-1.3,1.1-1.4c0.5-0.3-0.1-2.7-0.7-3.3
				c-0.4,1.1-2.6,5.1-3.8,8c-0.2,0.5-1.4,0.7,0.2-4.2c1.9-5.8,4-4.9,4.9-4.6c-0.1-2.7-2.8-2.9-3-4.7c-2.7-1.1-0.5-10.4-6-12.6l7-0.5
				c-1.4,1.4-4,0.9-4,0.9s0,0.8,2.1,0.8s3.8-2,3.8-4.6c0-1.9-2.3-6.2-4.6-6.2c-1.9,0-2.6,2.9-3.1,2.6c-1.1-0.6-0.3-1.1,0.1-1.8
				c1.4-2.5,3.8-1.9,3.8-3.9c0-3.8-4.8-3.9-5.5-3.2c-0.6,0.6,2.2,0,2.2,2.4c0,0.4,1.4-1.2,1.4-1.1C52.6,120.4,48.7,121.7,48.7,125.4
				z M43.3,123.9c0.5,1,5,0.7,5-3.4c0-2.2-1.8-2.6-1.8-3.2c0-1.5,8.1-2.1,8.1-6c0-2-0.6-3-0.6-3s0.2,3.1-0.8,3.1
				c-1.5,0-0.1-1.8-0.1-2.7c0-3.3-3.5-2.6-3.5-2.6s2.1,0.1,2.1,3.4c0,4.2-6.2,6.8-6.6,6.3c-0.5-0.5,1.7-1.9,1.7-4.2
				c0-1.1-0.5-3.5-2.9-3.5c-2.9,0-4.7,2-3.6,1.8c1.1-0.2,3.4,0.6,3.4,2.6c0,3.3-4.4,4.1-4.4,8.3c0,5.3,5.3,6.5,7,6.5s2-0.2,2-0.2
				c-0.4-0.5-0.3-1.7-0.3-1.7s-0.9,0.3-2,0.3c-4.1,0-4.5-3.1-4.5-4.1c0-1.1,1.1-3.1,2.7-2.9C47.6,118.9,45.5,122.7,43.3,123.9z
				 M39.4,158.3c0.5-0.7,1.4,1.7,1.4,1.7c2.1-1.9-0.2-2.9,0.5-3.5c0.9-0.8,2.4,0.5,2.4,0.5c1.1-1-0.6-2-0.1-2.6c1-1.3,1.3-0.1,2-0.4
				s1.4-0.9,0.7-1.9c-0.8-1-3.2-5.3-1.1-8.4c0,0-1.4,0.5-1.7,1.6s0.8,6.8,0.8,7.7l-6.2,5.3c0,0-0.5-0.5,0.4-1.5
				c0.8-1.1,4.7-4.3,4.7-4.3c-1-1.3,0.5-4.5-1.5-5.7c-0.5-0.2-2-0.7-0.8-1.6c0.8-0.6,2.2-0.3,2.2-3s-2.5-2.9-2.5-2.9
				c0.3-0.8,2.5-0.6,3.1-1.4c-1.1-0.5-1.1-0.6-2-0.6c-0.8,0-3.2,1.2-3.2,4.9s2.7,8.5,2.3,8.9c-0.5,0.5-3.3,2.3-3.9,3.8
				c-0.6,1.4-3.9,3.6-3.9,3.6l-3.2,5.2l2.1-1.2c0,0,0.8-2.5,2-3.3c1.8-1.1,3.4-2.9,3.7-2.6s-1.4,2.5-3.1,3.4
				c-0.5,1.1-1.8,4.9-1.7,5.7c0,0,3.8-4.5,4.8-5c1.1-0.5,1.4,0.9,1.4,0.9C40.4,160.3,38.9,159,39.4,158.3z M32.2,157
				c0.7-0.6,2.1-0.8,3-1.7c-1.8,0.4-3.5,0.9-3.5,0.9l-2.1,3.2l1.7-0.7C31.3,158.8,31.5,157.6,32.2,157z M14.8,161.8
				c0,0,2-0.5,3.6-1.3c-1.7,0.2-4.4,0.2-4.4,0.2l-2.4,5.1l2.4-1.4C13.9,164.4,13.9,162.1,14.8,161.8z M11.2,129.6
				c0,1.8,2.3,2.6,2.5,3.5s-1.8-0.6-1.8-0.3c0.3,2.5,2.4,2.8,3.2,4.1c0.5,0.8-1.9-0.3-1.9-0.1c0.5,2.9,3.6,1.8,4.1,3.8
				c0.3,1.1-1.9-0.6-2,0.3c0,0.6,1.2,4,1.8,4.1c0.7,0.2,2.9-0.7,3.8-1.1c1-0.4,2.9-0.8,3.1-1.7c-1.1-1.7-3.8-5.5-4.2-9
				c-2.2-2.3-4.4-5.7-4.4-8.5s0.8-5,0.8-5l-3.1-5.8l-0.5,2.7c0,0,2.9,2.7,2.8,3.6c-0.1,0.9-0.8,3.7-0.8,3.7
				c-0.5,0.8-0.4-3.6-0.4-3.6l-3.3-4.2c0,0-0.2,2.8,0,3.6c0.4,1.6,1.8,2.4,1.8,3.4s-1.3,2.6-2,3c-0.2,1.2,2.2,2.4,2.3,3.5
				C12.5,130.3,11.2,129.1,11.2,129.6z M16.7,122.5c0.5-0.8,2.3-1.2,2.2-1.9c-0.1-0.8-2.2-5.5-2.2-6.7l-1.3,2.5c0,0,2,2.8,2,3.7
				C17.3,121.1,16.5,121.3,16.7,122.5z M47.3,161.4c-2.2,0.4-5,1.1-5,1.1l-2.5,4.1l2.9-0.6c0.3-1.4,0.4-2.2,1-2.7
				C45,162,46.9,162,47.3,161.4z"/>
		</g>
		<g>
			<path d="M18.8,42.5c-0.1,1.5-1,0.2-1,0.2s-2.3-2.2-2.3-5.5c0.7-0.4,1-1.8,1.3-2c0.3-0.1,2.1-1,2.1-2c0-0.9-2.6-6.8-2.6-9
				l-2.2,3.1l-1.7-3L11,27.9l-1.4-1.7c0,0-0.7,5.2-0.4,6.2C9.9,35,11,34.7,11,35.6C11,37,8.6,38,8.6,38c0.3,0.7,1.7,7.4,2.7,10.6
				c1.1,3.7,2,4,2.7,5.6c0.6,1.3,0.9,4.1,2.4,4.1s5.7-1.5,5.7-1.5c-1.4,1.3-2,14.9-4.3,14.9c-1.5,0-5.4,0.1-5.4,0.1s-1.7,2.7-3,8
				l3.3-1.9l-1,5.2l4-3l1.7,5.1l1.5-2.4c0,0-0.4-1.2,0.9-2.8c1.1-1.4,2.7-3.8,2.7-3.8l2.1,0.5c0,0,1.1-1.6,0.8-3.1l0.6-0.1l0.6-1.4
				l0.9-2.5c0.3-0.8,3.8-9.8,4.9-12.6c0.2-0.5,0.8-2.1,0.6-2.9c-0.1-0.5-0.2-1-0.2-1.9c0-0.8,0.7-2.4,2.1-3.8c0,0,0,0,0,0.1
				c0,1,0.7,1.2,1.1,1.2c0.4,0,0.6-0.2,0.9-0.3c0.4-0.3,1.1-0.8,2.6-0.8c0.2,0,0.4,0,0.5,0c-1.5,0.6-3.2,2.3-3.2,5.7
				c0,2.3,1,5,1.7,6.9c0.2,0.5,0.4,1.2,0.6,1.6c-0.1,0.1-0.2,0.2-0.4,0.3c-1.5,1.1-3,2.3-3.5,3.5c0,0,0,0,0,0.1
				c-2.3,0.4-4.5,0.6-4.5,0.6l-3.4,6.1l2.2-0.7l-2.1,4.6l4.1-1.7c0,0-0.9,3.1,0,4.3c0.1-0.1,1.5-1,1.5-1s0.7-1.7,1.1-2.1
				c0.4-0.4,3-3,3-3l0.6,1.6c3.1-1.5,8.8-8.8,9-10.1c0-1.3-2.2-3.2-2.2-6.1c0-1.7,0.7-2.4,0.7-2.4c0,2.1,4.9,6.7,5.4,8
				c-1.1,0.6-3.3,7.1-3.5,8c-0.9,0-5.6,1.1-5.6,1.1s-2.7,2.9-3.5,6.3l3.8-0.8l-0.6,4.4l1.7-0.3c0,0,1.6-2.6,4.2-2.8l2.3,3.8l1.6-1.7
				c0,0,0.2-5,1-5.5l1.8,0.7c5.1-3.7,5.8-17,5.1-17.4c-0.4-0.3-0.6,0.3-1.9-1.4c-2.1-2.7-1.8-8.9-3.8-11c0,0,0.2-0.2,1.2-0.2
				c0.9,0,4.5-1.3,4.6-5.5c0-5.3-4.3-7.2-4.3-7.2s0.5-0.9,0.5-2.1c0-3.9-4.3-3.9-4.4-4.5c2.1-0.4,4.3-2.9,4.5-4.7
				c0.5-5.1-5.2-7.9-7.6-5.5c0.8,0.7,2.6,1.4,2.6,3.3c0,3.2-3.5,4.9-3.5,4.9s0.6-1.3,0.6-2.8c0-1.6-0.9-4.3-4.3-4.3
				c-4.3,0-5.3,3.7-5.3,3.7c1.1,0,4.4-0.4,4.4,1.7c0,2.6-4.3,4.1-4.3,8.3s3.7,7.3,7.8,7.6C46.8,41,47,41,47.8,41s1.3,1,3,1
				c2.1,0,2.6-1,3.4-1c0.7,0,0.7,0.7,0.7,1.1c0,0.4,0.1,1.5-2.5,1.5c-2.8,0-7.9-1.4-12.4-1.4c-3.6,0-4.1,0.1-4.3,0.3
				c0.2-0.4,0.8-1.5,0.8-2.5c-0.8-0.4-1.6-2.8-2-2.8c3.9-3.5,3.3-6.6,3.3-7.3c-0.3-0.9-0.8-1-1.8-1c-0.9,0-1.5,0.4-1.5,0.4
				s-0.2-3.3-0.8-4.4c-1.2-1.9-7.3-3.1-9.7,0.4c0,0-0.9,2.2-1.2,2.8c-1.9-0.7-3,0.2-3,0.2s0.1,1,0.1,1.7c0,0.6-0.1,1.5-0.1,2.3
				s1.7,3.8,1.7,3.8c-0.9,1.4-4.2,2.9-4.2,2.9C17.8,40.1,18.8,42.5,18.8,42.5z"/>
			<path d="M28.2,22.9"/>
			<path class="st0" d="M19.9,41.8c0.4-0.3,1.5-2.1,2.6-2.1c-0.1,0.6-1.7,2-2.2,3.1s0.4,2.2,0.8,3c-0.1-0.7,1.6-1.9,2.2-2.5
				c0.5-0.6,1-0.4,0.6,0.4c-0.4,1-1.9,2-1.9,3.5c0,0.8,0.6,1.4,1.3,1.8c0,0,0.3-2.6,1.3-1.9c0.4,0.3-1.7,4.3,0,5.9
				c0.3-1.2,2.9-3.1,2.9-3.7c0-0.5-0.9-2.3,0-2.3c0.5,0,1,1.6,1.4,1.6s1.1-0.4,1.1-1s-1.6-3.3-0.6-3.3c0.5,0,1.5,1.8,1.8,1.8
				s0.5-0.2,0.8-1.6c0.3-1.4-1.3-2-0.7-3.4c0,0,1.4,0.7,1.9,1.5s1.3-1.4,1.4-2.2c-0.3-0.3-0.6-1.5-1.1-2.2c-0.5-0.6-1.1-0.8-1.1-1
				c0-0.4,0.5-0.4,2.3-2.4s1.5-4.2,1.5-4.6c-1.1-1-2,0.5-2.9,0S32.8,27,32.6,26c0,0-1.2,1.9-1.4,1.6c-0.3-0.3,0.1-1.1,0.4-2
				c0.3-0.9-1.3-1.4-1.3-1.4s-0.4,1.9-1,1.8c-0.6-0.1-0.5-1.9-0.5-1.9s-1.3-0.7-1.5,0.8c-0.3,1.8-1.2,0.3-1.6-0.5
				c-0.6,0.3-0.4,2.3-0.4,3.1c0,0.7-1.3-0.6-1.9-0.9c0.2,0.6-0.5,1.6-0.5,2.3S20.6,28.5,20,29c0,0.3-0.3,2.6,0.1,3.8
				c0.6,1.7,1.5,2.4,1.5,3.4c0,0.9-1.4,1.4-4,3C18.9,39.4,18.9,42.7,19.9,41.8z M28.7,28.6c0.5,0.6,1.6,1.5,2.4,0.8
				c0.4,0.1,0.5,0.2,0.1,0.7s-0.4,1.7-1.2,1.6c-1.4-0.1-0.8-2.2-1.3-2.6V28.6z M27.2,28.5l0.2,0.4c-0.4,0.1-0.5,2.3-1.5,2.3
				c-1.3,0-0.3-1.6-1.3-1.9C24.6,29.3,26.5,29.2,27.2,28.5z M21.4,31.7c0-1.3,1-1.5,1.3-1.5c0.8,0,0.7,2.3,1.1,2.8
				c0.4,0.5,1.3,0.3,1.5,0.6C25,34.1,24,34.7,24,35.4s0.6,0.9,0.9,0.9c0.4,0,2.2-0.5,2.2-1.5c0-0.5-0.4-0.8-0.6-1.2
				c-0.2-0.4-0.1-0.8-0.3-0.9c0.7-0.1,1.4-0.3,1.9-0.3s0.6,0.4,0.6,0.8c0,0.5-1,0.8-1,1.3s1.3,1.7,1.7,1.7s1.3-0.4,1.3-1
				s-0.4-1.4,0-1.8c0.2-0.2,0.8,0.2,0.8,0.2c0.8-0.8,1.3-2.4,2.9-2.6c1.6,2.8-1.7,3.8-1.7,3.8l-1.3-0.5c0.5,1.6-0.9,2.1-0.8,2.8
				c0.1,1.8-0.2,2.3-0.9,2.9c-0.4-0.1-1.3-0.2-1.3,0.2c0.8,1.5-1.6,3-1.3,3.7c-0.4-0.2-1.2-2-1.5-2.3c-0.3-0.4,0.3-0.9-0.1-1.7
				c-0.2-0.5-1.2,0.1-1.3-0.8c-0.1-0.8,0.2-2.5-0.8-3.1C23.3,34.4,21.4,33.3,21.4,31.7z M47.7,37.9c0,1.2,0.6,2.9,2.4,2.9
				c2.1,0,2.2-1,3.4-1s1.7,1,1.7,2.1s-0.6,2.4-3.5,2.4c-5.2,0-6.5-1.4-12.7-1.4c-5.8,0-5.4,2.3-9.1,6.1c-3.7,3.7-6.7,6.5-6.7,6.5
				l0.2,0.6c-1.8,1.9-2.7,11.1-3.6,14.3C18.9,73.6,14,75,14,75l-1.1,6.2l2.4-2.1c0,0-0.2-0.4-0.2-1.8c-0.1-1.3,3.7-4.1,5.5-5.2
				c-0.3,1.7-4.5,5.1-4.5,5.1s0.4,1.1,0.5,2.4c0.1,1.3,1,3.6,1,3.6l0.2-0.4c0,0,0.1-1.4,0.4-2c0.6-1.2,3.7-5.4,3.7-5.4l2,0.3
				c1-1.6-0.4-3.2-0.7-4.2c0.8-0.8,1.3-0.4,2.2,0.5c0.7-1.8,0.1-1.9-0.5-3.4c-0.6-1.4,0.5-1.1,2.1-0.3c0.6-1,0.4-1.8-0.4-3.8
				c-0.9-2,1-1,1.9-0.4c0.7-1,0.4-1.3-0.4-3.4c-0.8-2.1,0.4-1.8,1.9-0.7c0.9-2.4,0.1-1.9-0.4-3.5c-0.6-1.6,0.9-1.4,2-0.4
				c1-1,0.2-1.3,0.2-3.8c0-1.8,2.1-5.3,5.8-6.6c1.3,1.3-1.7,1.5-1.7,2.9c0,0.8,0.6-0.9,3.5-0.9s3.1,1.4,3.8,1.4s0.1-2.1,0.1-2.1
				c3.4,0,2.2,3.4,2.2,7.6c0,4.2,5.8,8.2,5.9,10.5c-2.1,1.2-2.6,6.5-4.5,9.4c-1,1.2-2.3,1.3-3.6,1.8L42,81.6c1-1.1,3.7-1.9,3.7-1.9
				c-1.3-2.5,0.4-3.2,1-3.8c0.7-0.6,3.5-4.3,3.5-4.3l0.4,0.4c0,0-1.4,4-3.7,5.1c-0.6,1.3,1.5,4.6,2,5.5c0.2-0.3,0.5-0.6,0.5-0.6
				s0.2-4.5,0.9-5.3c0.8-0.9,1-0.8,2.6-0.2c0.7-0.7,0.3-2.5-0.3-3.6c0.7-1.3,1.7,1.2,2.1,0.8c1.2-1.6-1.1-2.9-0.3-4.5
				c0,0,1.3,1.2,1.6,1s0.2-1.1-0.1-1.9c-1.6-3.7,0.8-1.3,1-1.4c0.5-0.3-0.1-2.7-0.7-3.3c-0.4,1-2.6,5.1-3.8,8
				c-0.2,0.5-1.3,0.7,0.2-4.2c1.9-5.8,4-4.9,4.9-4.6c-0.1-2.7-2.8-2.9-3-4.7c-2.7-1.1-0.5-10.3-6-12.6l7-0.5c-1.3,1.3-4,0.9-4,0.9
				s0,0.8,2.1,0.8s3.8-2,3.8-4.6c0-1.9-2.3-6.1-4.6-6.1c-1.9,0-2.6,2.8-3.1,2.6c-1.1-0.6-0.3-1,0.1-1.7c1.4-2.4,3.8-1.9,3.8-3.9
				c0-3.8-4.8-3.9-5.5-3.2c-0.6,0.6,2.2,0,2.2,2.4c0,0.4,1.4-1.2,1.4-1.1C51.6,32.9,47.7,34.2,47.7,37.9z M42.3,36.4
				c0.5,1,5,0.7,5-3.4c0-2.2-1.8-2.6-1.8-3.2c0-1.5,8.1-2.1,8.1-6c0-2-0.6-3-0.6-3s0.2,3.1-0.8,3.1c-1.5,0-0.1-1.8-0.1-2.7
				c0-3.3-3.5-2.5-3.5-2.5s2.1,0.1,2.1,3.4c0,4.2-6.1,6.7-6.6,6.3c-0.4-0.4,1.6-1.9,1.6-4.2c0-1.1-0.4-3.5-2.8-3.5
				c-2.8,0-4.7,1.9-3.6,1.8c1.1-0.2,3.4,0.6,3.4,2.5c0,3.3-4.3,4.1-4.3,8.3c0,5.2,5.3,6.5,7,6.5c1.6,0,2-0.2,2-0.2
				C47,39.1,47.1,38,47.1,38s-0.9,0.3-1.9,0.3c-4,0-4.5-3.1-4.5-4.1s1.1-3.1,2.7-2.9C46.6,31.4,44.5,35.2,42.3,36.4z M38.4,70.7
				c0.5-0.7,1.3,1.6,1.3,1.6c2.1-1.9-0.2-2.9,0.4-3.4c0.9-0.7,2.4,0.4,2.4,0.4c1.1-1-0.6-2-0.1-2.6c1-1.3,1.3-0.1,1.9-0.4
				c0.7-0.3,1.4-0.9,0.7-1.9s-3.1-5.2-1-8.4c0,0-1.3,0.4-1.6,1.6c-0.3,1.1,0.8,6.8,0.8,7.6l-6.1,5.2c0,0-0.4-0.4,0.4-1.5
				c0.8-1,4.7-4.3,4.7-4.3c-1-1.3,0.5-4.5-1.5-5.7c-0.5-0.2-2-0.7-0.7-1.6c0.8-0.6,2.2-0.3,2.2-3s-2.5-2.9-2.5-2.9
				c0.3-0.8,2.5-0.6,3.1-1.4c-1.1-0.5-1.1-0.6-1.9-0.6c-0.8,0-3.2,1.2-3.2,4.9s2.7,8.4,2.2,8.9s-3.3,2.3-3.9,3.7
				c-0.6,1.4-3.9,3.5-3.9,3.5L29,75.6l2.1-1.2c0,0,0.8-2.5,2-3.3c1.7-1,3.4-2.9,3.6-2.6c0.3,0.3-1.4,2.5-3.1,3.4
				c-0.5,1-1.8,4.9-1.6,5.7c0,0,3.7-4.5,4.8-4.9c1-0.4,1.4,0.9,1.4,0.9C39.5,72.7,37.9,71.4,38.4,70.7z M31.3,69.4
				c0.7-0.6,2.1-0.8,3-1.7c-1.8,0.4-3.5,0.9-3.5,0.9l-2.1,3.2l1.7-0.7C30.3,71.1,30.6,70,31.3,69.4z M13.9,74.1c0,0,2-0.5,3.6-1.3
				C15.8,73,13.1,73,13.1,73l-2.4,5.1l2.4-1.3C13,76.7,13,74.4,13.9,74.1z M10.3,42.1c0,1.8,2.3,2.6,2.5,3.5
				c0.1,0.9-1.8-0.6-1.8-0.3c0.3,2.5,2.4,2.8,3.1,4.1c0.4,0.8-1.9-0.3-1.9-0.1c0.5,2.9,3.6,1.8,4.1,3.7c0.3,1.1-1.9-0.6-2,0.3
				c0,0.6,1.2,3.9,1.8,4.1c0.7,0.1,2.8-0.7,3.8-1c1-0.4,2.8-0.7,3.1-1.6c-1-1.6-3.8-5.5-4.2-9c-2.2-2.3-4.3-5.7-4.3-8.5s0.8-5,0.8-5
				l-3.1-5.8l-0.6,2.6c0,0,2.8,2.7,2.8,3.6c-0.1,0.9-0.8,3.7-0.8,3.7c-0.5,0.7-0.4-3.6-0.4-3.6l-3.3-4.2c0,0-0.2,2.8,0,3.6
				c0.4,1.6,1.8,2.4,1.8,3.3c0,1-1.3,2.6-1.9,3c-0.1,1.2,2.2,2.4,2.2,3.4C11.6,42.7,10.3,41.6,10.3,42.1z M15.8,35
				c0.5-0.8,2.3-1.2,2.2-1.9c-0.1-0.8-2.2-5.5-2.2-6.6l-1.3,2.4c0,0,2,2.8,2,3.7C16.4,33.6,15.6,33.8,15.8,35z M46.3,73.7
				c-2.1,0.4-5,1-5,1l-2.4,4l2.9-0.6c0.3-1.4,0.4-2.2,1-2.7C44,74.4,45.9,74.4,46.3,73.7z"/>
		</g>
		<g>
			<path d="M145.5,130.2c-0.1,1.5-1,0.2-1,0.2s-2.3-2.2-2.3-5.5c0.7-0.4,1-1.8,1.3-2c0.3-0.1,2.1-1,2.1-2c0-0.9-2.6-6.8-2.6-9
				l-2.2,3.1l-1.7-3l-1.4,3.6l-1.4-1.7c0,0-0.7,5.2-0.4,6.2c0.7,2.6,1.8,2.3,1.8,3.2c0,1.4-2.4,2.4-2.4,2.4
				c0.3,0.7,1.7,7.4,2.7,10.6c1.1,3.7,2,4,2.7,5.6c0.6,1.3,0.9,4.1,2.4,4.1c1.5,0,5.7-1.5,5.7-1.5c-1.4,1.3-2,14.9-4.3,14.9
				c-1.5,0-5.4,0.1-5.4,0.1s-1.7,2.7-3,8l3.3-1.9l-1,5.2l4-3l1.7,5.1l1.5-2.4c0,0-0.4-1.2,0.9-2.8c1.1-1.4,2.7-3.8,2.7-3.8l2.1,0.5
				c0,0,1.1-1.6,0.8-3.1l0.6-0.1l0.6-1.4l0.9-2.5c0.3-0.8,3.8-9.8,4.9-12.6c0.2-0.5,0.8-2.1,0.6-2.9c-0.1-0.5-0.2-1-0.2-1.9
				c0-0.8,0.7-2.4,2.1-3.8c0,0,0,0,0,0.1c0,1,0.7,1.2,1.1,1.2s0.6-0.2,0.9-0.3c0.4-0.3,1.1-0.8,2.6-0.8c0.2,0,0.4,0,0.5,0
				c-1.5,0.6-3.2,2.3-3.2,5.7c0,2.3,1,5,1.7,6.9c0.2,0.5,0.4,1.2,0.6,1.6c-0.1,0.1-0.2,0.2-0.4,0.3c-1.5,1.1-3,2.3-3.5,3.5
				c0,0,0,0,0,0.1c-2.3,0.4-4.5,0.6-4.5,0.6l-3.4,6.1l2.2-0.7l-2.1,4.6l4.1-1.7c0,0-0.9,3.1,0,4.3c0.1-0.1,1.5-1,1.5-1
				s0.7-1.7,1.1-2.1s3-3,3-3l0.6,1.6c3.1-1.5,8.8-8.8,9-10.1c0-1.3-2.2-3.2-2.2-6.1c0-1.7,0.7-2.4,0.7-2.4c0,2.1,4.9,6.7,5.4,8
				c-1.1,0.6-3.3,7.1-3.5,8c-0.9,0-5.6,1.1-5.6,1.1s-2.7,2.9-3.5,6.3l3.8-0.8l-0.6,4.4l1.7-0.3c0,0,1.6-2.6,4.2-2.8l2.3,3.9l1.6-1.7
				c0,0,0.2-5,1-5.5l1.8,0.7c5.1-3.7,5.8-17,5.1-17.4c-0.4-0.3-0.6,0.3-1.9-1.4c-2.1-2.7-1.8-8.9-3.8-11c0,0,0.2-0.2,1.2-0.2
				c0.9,0,4.5-1.3,4.6-5.5c0-5.3-4.3-7.2-4.3-7.2s0.5-0.9,0.5-2.1c0-3.9-4.4-3.9-4.4-4.5c2.1-0.4,4.3-2.9,4.5-4.7
				c0.5-5.1-5.2-7.9-7.6-5.5c0.8,0.7,2.6,1.4,2.6,3.3c0,3.2-3.5,4.9-3.5,4.9s0.6-1.3,0.6-2.8c0-1.6-0.9-4.3-4.3-4.3
				c-4.3,0-5.3,3.7-5.3,3.7c1.1,0,4.4-0.4,4.4,1.7c0,2.6-4.3,4.1-4.3,8.3s3.7,7.3,7.8,7.6c1.1,0.1,1.3,0.1,2.1,0.1c0.8,0,1.3,1,3,1
				c2.1,0,2.6-1,3.4-1c0.7,0,0.7,0.7,0.7,1.1s0.1,1.5-2.5,1.5c-2.8,0-7.9-1.4-12.4-1.4c-3.6,0-4.1,0.1-4.3,0.3
				c0.2-0.4,0.8-1.5,0.8-2.5c-0.8-0.4-1.6-2.8-2-2.8c3.9-3.5,3.3-6.6,3.3-7.3c-0.3-0.9-0.8-1-1.8-1c-0.9,0-1.5,0.4-1.5,0.4
				s-0.2-3.3-0.8-4.4c-1.2-1.9-7.3-3.1-9.7,0.4c0,0-0.9,2.2-1.2,2.8c-1.9-0.7-3,0.2-3,0.2s0.1,1,0.1,1.7c0,0.6-0.1,1.5-0.1,2.3
				s1.7,3.8,1.7,3.8c-0.9,1.4-4.2,2.9-4.2,2.9C144.5,127.8,145.5,130.2,145.5,130.2z"/>
			<path d="M154.9,110.6"/>
			<path class="st0" d="M146.6,129.5c0.4-0.3,1.5-2.1,2.6-2.1c-0.1,0.6-1.7,2-2.3,3.1c-0.5,1.1,0.4,2.2,0.8,3
				c-0.1-0.7,1.6-1.9,2.2-2.5c0.5-0.6,1-0.4,0.6,0.4c-0.4,1-1.9,2-1.9,3.5c0,0.8,0.6,1.4,1.4,1.8c0,0,0.3-2.6,1.4-1.9
				c0.4,0.3-1.7,4.3,0,5.9c0.3-1.2,2.9-3.1,2.9-3.7c0-0.5-0.9-2.3,0-2.3c0.5,0,1,1.6,1.4,1.6s1.1-0.4,1.1-1s-1.6-3.3-0.6-3.3
				c0.5,0,1.5,1.8,1.8,1.8s0.5-0.2,0.8-1.6c0.3-1.4-1.3-2-0.7-3.4c0,0,1.4,0.7,1.9,1.5c0.5,0.8,1.4-1.4,1.4-2.2
				c-0.3-0.3-0.6-1.5-1.1-2.2c-0.5-0.6-1.1-0.8-1.1-1c0-0.4,0.5-0.4,2.3-2.4s1.5-4.2,1.5-4.6c-1.1-1-2,0.5-2.9,0s-0.5-3.2-0.7-4.2
				c0,0-1.2,1.9-1.4,1.6c-0.3-0.3,0.1-1.1,0.4-2s-1.3-1.4-1.3-1.4s-0.4,1.9-1,1.8c-0.6-0.1-0.5-1.9-0.5-1.9s-1.3-0.7-1.5,0.8
				c-0.3,1.8-1.2,0.3-1.6-0.5c-0.6,0.3-0.4,2.3-0.4,3.1c0,0.7-1.3-0.6-1.9-0.9c0.2,0.6-0.5,1.6-0.5,2.3s-2.3-0.4-2.9,0.1
				c0,0.3-0.3,2.6,0.1,3.8c0.6,1.7,1.5,2.4,1.5,3.4c0,0.9-1.4,1.4-4,3C145.5,127.1,145.6,130.3,146.6,129.5z M155.4,116.3
				c0.5,0.6,1.6,1.5,2.4,0.8c0.4,0.1,0.5,0.2,0.1,0.7s-0.4,1.7-1.2,1.6c-1.4-0.1-0.8-2.2-1.3-2.6V116.3z M153.9,116.1l0.2,0.4
				c-0.4,0.1-0.5,2.3-1.5,2.3c-1.3,0-0.3-1.6-1.3-1.9C151.3,117,153.1,116.9,153.9,116.1z M148.1,119.4c0-1.3,1-1.5,1.3-1.5
				c0.8,0,0.7,2.3,1.1,2.8s1.3,0.3,1.5,0.6c-0.3,0.5-1.3,1.1-1.3,1.8s0.6,0.9,0.9,0.9c0.4,0,2.2-0.5,2.2-1.5c0-0.5-0.4-0.8-0.6-1.2
				s-0.1-0.8-0.3-0.9c0.7-0.1,1.4-0.3,1.9-0.3s0.6,0.4,0.6,0.8c0,0.5-1,0.8-1,1.3s1.3,1.7,1.7,1.7c0.4,0,1.3-0.4,1.3-1
				s-0.4-1.4,0-1.8c0.2-0.2,0.8,0.2,0.8,0.2c0.8-0.8,1.3-2.4,2.9-2.6c1.6,2.8-1.7,3.8-1.7,3.8l-1.3-0.5c0.5,1.6-0.9,2.1-0.8,2.8
				c0.1,1.8-0.2,2.3-0.9,2.9c-0.4-0.1-1.3-0.2-1.3,0.2c0.8,1.5-1.6,3-1.3,3.7c-0.4-0.2-1.2-2-1.5-2.3c-0.3-0.4,0.3-0.9-0.1-1.7
				c-0.2-0.5-1.2,0.1-1.3-0.8c-0.1-0.8,0.2-2.5-0.8-3.1C150,122.1,148.1,121,148.1,119.4z M174.3,125.6c0,1.2,0.6,2.9,2.4,2.9
				c2.1,0,2.2-1,3.4-1c1.2,0,1.7,1,1.7,2.1s-0.6,2.4-3.5,2.4c-5.2,0-6.5-1.4-12.7-1.4c-5.8,0-5.4,2.3-9.1,6.1
				c-3.7,3.7-6.7,6.5-6.7,6.5l0.2,0.6c-1.8,1.9-2.7,11.1-3.6,14.3c-0.9,3.2-5.8,4.6-5.8,4.6l-1.1,6.2l2.4-2.1c0,0-0.2-0.4-0.2-1.8
				c-0.1-1.3,3.7-4.1,5.5-5.2c-0.3,1.7-4.5,5.1-4.5,5.1s0.4,1.1,0.5,2.4s1,3.6,1,3.6l0.2-0.4c0,0,0.1-1.4,0.4-2
				c0.6-1.2,3.7-5.4,3.7-5.4l2,0.3c1-1.6-0.4-3.2-0.7-4.2c0.8-0.8,1.3-0.4,2.2,0.5c0.7-1.8,0.1-1.9-0.5-3.4
				c-0.6-1.4,0.5-1.1,2.1-0.3c0.6-1,0.5-1.8-0.4-3.8s1-1,1.9-0.4c0.7-1,0.4-1.3-0.5-3.4c-0.8-2.1,0.5-1.8,1.9-0.7
				c0.9-2.4,0.1-1.9-0.5-3.5s0.9-1.4,2-0.5c1-1,0.2-1.3,0.2-3.8c0-1.8,2.1-5.3,5.8-6.6c1.3,1.3-1.7,1.5-1.7,2.9
				c0,0.8,0.6-0.9,3.5-0.9s3.1,1.4,3.8,1.4c0.7,0,0.1-2.1,0.1-2.1c3.4,0,2.2,3.4,2.2,7.6s5.8,8.2,5.9,10.5c-2.1,1.2-2.6,6.5-4.5,9.4
				c-1,1.2-2.3,1.3-3.6,1.8l-1.3,5.3c1-1.1,3.7-1.9,3.7-1.9c-1.3-2.5,0.4-3.2,1-3.8c0.7-0.6,3.5-4.3,3.5-4.3l0.5,0.5
				c0,0-1.4,4-3.7,5.1c-0.6,1.3,1.5,4.6,2,5.5c0.2-0.3,0.5-0.6,0.5-0.6s0.2-4.5,0.9-5.3c0.8-0.9,1-0.8,2.6-0.2
				c0.7-0.7,0.3-2.5-0.3-3.6c0.7-1.3,1.7,1.2,2.1,0.8c1.2-1.6-1.1-2.9-0.3-4.5c0,0,1.3,1.2,1.6,1c0.3-0.2,0.2-1.1-0.1-1.9
				c-1.6-3.7,0.8-1.3,1-1.4c0.5-0.3-0.1-2.7-0.7-3.3c-0.4,1-2.6,5.1-3.8,8c-0.2,0.5-1.3,0.7,0.2-4.2c1.9-5.8,4-4.9,4.9-4.6
				c-0.1-2.7-2.8-2.9-3-4.7c-2.7-1.1-0.4-10.3-6-12.6l7-0.5c-1.3,1.3-4,0.9-4,0.9s0,0.8,2.1,0.8s3.8-2,3.8-4.6
				c0-1.9-2.3-6.1-4.6-6.1c-1.9,0-2.6,2.8-3.1,2.6c-1.1-0.6-0.3-1,0.1-1.7c1.4-2.4,3.8-1.9,3.8-3.9c0-3.8-4.8-3.9-5.5-3.2
				c-0.6,0.6,2.2,0,2.2,2.4c0,0.4,1.4-1.2,1.4-1.1C178.2,120.6,174.3,121.9,174.3,125.6z M169,124c0.5,1,5,0.7,5-3.4
				c0-2.2-1.8-2.6-1.8-3.2c0-1.5,8.1-2.1,8.1-6c0-2-0.6-3-0.6-3s0.1,3.1-0.8,3.1c-1.5,0-0.1-1.8-0.1-2.7c0-3.3-3.5-2.5-3.5-2.5
				s2.1,0.1,2.1,3.4c0,4.2-6.1,6.7-6.6,6.3c-0.4-0.4,1.6-1.9,1.6-4.2c0-1.1-0.4-3.5-2.8-3.5c-2.8,0-4.7,1.9-3.6,1.8
				c1.1-0.2,3.4,0.6,3.4,2.5c0,3.3-4.3,4.1-4.3,8.3c0,5.2,5.3,6.5,7,6.5s2-0.2,2-0.2c-0.4-0.5-0.3-1.6-0.3-1.6s-0.9,0.3-1.9,0.3
				c-4,0-4.5-3.1-4.5-4.1s1.1-3.1,2.7-2.9C173.2,119.1,171.2,122.9,169,124z M165.1,158.4c0.5-0.7,1.3,1.6,1.3,1.6
				c2.1-1.9-0.2-2.9,0.5-3.4c0.9-0.7,2.4,0.4,2.4,0.4c1.1-1-0.6-2-0.1-2.6c1-1.3,1.3-0.1,1.9-0.4c0.7-0.3,1.4-0.9,0.7-1.9
				c-0.7-1-3.1-5.2-1-8.4c0,0-1.3,0.4-1.6,1.6c-0.3,1.1,0.8,6.8,0.8,7.6l-6.1,5.2c0,0-0.4-0.4,0.4-1.5c0.8-1,4.7-4.3,4.7-4.3
				c-1-1.3,0.4-4.5-1.5-5.7c-0.5-0.2-2-0.7-0.7-1.6c0.8-0.6,2.2-0.3,2.2-3s-2.5-2.9-2.5-2.9c0.3-0.8,2.5-0.6,3.1-1.4
				c-1.1-0.5-1.1-0.6-1.9-0.6s-3.2,1.2-3.2,4.9s2.7,8.4,2.2,8.9s-3.3,2.3-3.9,3.7c-0.6,1.4-3.9,3.5-3.9,3.5l-3.1,5.2l2.1-1.2
				c0,0,0.8-2.5,2-3.3c1.7-1,3.4-2.9,3.6-2.6c0.3,0.3-1.4,2.5-3.1,3.4c-0.5,1-1.8,4.9-1.6,5.7c0,0,3.7-4.5,4.8-4.9
				c1-0.5,1.4,0.9,1.4,0.9C166.1,160.4,164.6,159,165.1,158.4z M157.9,157.1c0.7-0.6,2.1-0.8,3-1.7c-1.8,0.4-3.5,0.9-3.5,0.9
				l-2.1,3.2l1.7-0.7C157,158.8,157.3,157.7,157.9,157.1z M140.5,161.8c0,0,2-0.5,3.6-1.3c-1.7,0.2-4.4,0.2-4.4,0.2l-2.4,5.1
				l2.4-1.3C139.7,164.4,139.6,162.1,140.5,161.8z M137,129.8c0,1.8,2.3,2.6,2.5,3.5c0.1,0.9-1.8-0.6-1.8-0.3
				c0.3,2.5,2.4,2.8,3.1,4.1c0.4,0.8-1.9-0.3-1.9-0.1c0.5,2.9,3.6,1.8,4.1,3.7c0.3,1.1-1.9-0.6-2,0.3c0,0.6,1.2,3.9,1.8,4.1
				c0.7,0.1,2.8-0.7,3.8-1c1-0.4,2.8-0.7,3.1-1.6c-1-1.6-3.8-5.5-4.2-9c-2.2-2.3-4.3-5.7-4.3-8.5s0.8-5,0.8-5l-3.1-5.8l-0.6,2.6
				c0,0,2.8,2.7,2.8,3.6c-0.1,0.9-0.8,3.7-0.8,3.7c-0.5,0.7-0.4-3.6-0.4-3.6l-3.3-4.2c0,0-0.2,2.8,0,3.6c0.4,1.6,1.8,2.4,1.8,3.3
				c0,1-1.3,2.6-1.9,3c-0.2,1.2,2.2,2.4,2.2,3.4C138.3,130.4,137,129.3,137,129.8z M142.4,122.7c0.5-0.8,2.3-1.2,2.2-1.9
				c-0.1-0.8-2.2-5.5-2.2-6.6l-1.3,2.4c0,0,2,2.8,2,3.7C143.1,121.3,142.3,121.5,142.4,122.7z M173,161.4c-2.1,0.4-5,1-5,1l-2.4,4
				l2.9-0.6c0.3-1.4,0.4-2.2,1-2.7C170.7,162.1,172.6,162,173,161.4z"/>
		</g>
		<g>
			<path d="M99,30.3c-0.8,0.2-4.9-0.8-5.4-2.6c-0.7-2.6,2.6-4.5,2.6-9.1c0-4.2-4.3-5.1-5.6-5.1c-1.5,0-5.1,0.6-5.1,4.1
				c0,3.4,3.2,3.7,3.2,3.7c-1.7,5.6,0.2,9.7,2.6,11.4c3.2,2.4,6.9,1.1,6.9,2.3c-0.5,0.1-3.1,3.8-4.2,5.1c-0.8,1-1.3,1.6-1.3,2.2
				c0,1,4,0.3,6.6-0.2c0,0-2.2,2.4-4.8,2.7c-0.4,0-0.3,0-0.6,0c-0.6-0.1-1.3-0.2-1.6-0.5c-0.5-0.5-1.5-1.6-0.6-4.1
				c0.3-0.8,0.4-0.9,1-1.8c0.8-1.1-7.9,0.6-6.9,8c0.4,3.1,2.1,2.8,0.8,3.4c-0.5,0.5-1,1.8-1,1.8s-0.4-3.3-0.8-6.7
				c-0.3-2.4-0.6-2.9-0.8-5.3c-0.1-1.4,0.5-2.4,1.7-2.4c2-0.1,3.6,0.4,3-4c-1.5-12.3-13.3-15.6-13.6-15.4c0,0,0,1.1,1.3,2.7
				c1.3,1.6,2.1,3.7,2.1,5c-3.1-1.6-7.9-2.8-7.9-2.8s0,0.8,0,1.2c0.6,1.4,3.5,6.3,3.9,9.4c-1.5-2.1-2.9-2.9-2.9-2.9
				c0.3,1.3,0.4,3.3,0.4,8.8c0.1,8.7,0,20.4,3.4,26.9c0.4,0.7,0.4,6.7,3.1,6.7c2.7,0,2.6,0.3,2.6,0.3s1.3,1.2,1.9,1.1
				c0,0-3.5,10-6.3,19.9c-2.7,0.8-4.1-1.5-5.1-1.5c-1-0.1-1.8,5.9,1.2,12c0,0-1.7,0.8-1.7,3.1c0,2.7,1.8,8.2,6.1,11.1
				c0,0,0.5,0.3,0.2-0.8c-0.4-1.1,0.5-4.7,1-5.4c3.1,2.7,7.3,0.7,7.3,0.7l-0.8-1.3c0,0-0.9,0.6-0.4-6.4c0.7,0.2,0.7,1.7,0.8,1.8
				c0.4,0.1,0.7,0.1,0.8-0.1c0.6-0.8,2.4-5.5,2.4-5.5c0.2-0.7,1.1-0.4,2.7-2.5c0.6-0.8,0.9-2.3,0.9-2.3c2.5-0.9,2.5-4.5,2.5-4.5
				c0.8,0,1.9-3.1,1.8-5.6c0.3-1.1,0.8-1.2,1-2c0.5,0.8,5.3,3.2,5.3,10.6c0,5.3-2.4,5.4-1.7,7.5c0.1,0.2-1.1,1.2-4.4,1
				c-2.1-0.2-4.2-2-5-2.1c-2-0.4-1.9,0.7-2.5,2.2s-3.2,18.3,2.3,29.6c-2-0.4-8.2-0.2-9-2.1c-0.6-1.5,1.6-3.4,1.6-3.4
				s-0.5-2.6-5.4-2.1c-3.9,0.5-6.8,2.8-8.3,6.3l1.2,0.2c0,0-1.6,1.2-1.8,2.9c-0.1,0.8-0.1,2.1-0.1,2.1l1.3-0.5c0,0-0.1,0.8,0.8,5.1
				c0.7,3.8,2.2,4.7,2.2,4.7s0.1-0.7,0.2-1.1l0.7-4.3c0.2-0.8,3.7-0.2,3.7-0.2s-1.2,0.4-2.1,1l0,0c-0.3,0.3-0.7,1.7-0.8,2.7l0,0
				c0.7,0,2.3,0.1,4.1,0.6c1,0.3,1.6,1.1,2.8,1.4c0.4,0.1,1.2,0.1,1.6,0.2c1.2,0.3,2.5,0.7,3.9,1c0.3,0.1,0.9-0.1,1.2,0
				c1.5,0.3,2.8,0.9,4.9,0.8c1.2-0.1,2,0.6,3.2,0.7c3.5,0.2,4.7-1.6,6.1-1c-0.1-0.9,1.4-2.1-2.1-4.8c0-1.6,2.1-2.4,2.1-2.4
				c0.4-3.3-3.7-8.2-3.7-8.2s-0.5-2.8-0.8-5.7c-0.6-5.9,1.2-12.1,1.2-12.1s0.7-0.2,1.2-0.3c0,0,0.2,0.2-0.2,1.2
				c-0.3,0.6-2,6.1,0.4,13.4c2.1,6.5,7.8,9.8,7.8,13.4l-1.5-0.1c-3.3,3.3-3.2,19.4-3.9,20.9c-0.5,0-1.2,0.3-1.5,0
				c-1.6-1.1-2.5-2.4-3.4-3c-0.2-0.2-0.8-0.7-1-0.6c-0.4,0-1.9,1.3-2.3,1.5c-4.5,2.4-4.7,9.2-3.4,13.1c0.2,0,1.4-1.7,1.7-2.1
				c0,0,0.9,9.4,4.3,10.3l0.4-0.6c0,0,0.2-6.1,1.4-5.6c0.1,0.1,1.1,3,2,3.9c1.8,1.6,1.3,1.5,3,2.3c1.8,0.4,2.8,0.9,2.8,0.9
				c0-0.1-0.1-0.5-0.3-1.1c0.2-0.6-1.2-1.9-0.5-3.7c0,0,3.9-5.7,4-6.8c1.6,1,3.6,1.2,3.6,1.2l0.6-1.2c0,0-1.1-1.6-0.4-2.4
				c1-1.1,2.2-3.6,3.2-6.7c0.1-0.4-0.1-1,0.1-1.4c0.5-1.5,1.2-2.9,1.5-4.5c0.1-0.5,0.8-1.3,0.9-1.8c0.1-0.4-0.1-1.3,0-1.7
				c0.8-4.2,1-7.6,0.2-8.1c1-0.2,1.6-0.8,1.6-0.8s-1.2-0.2-1.2-1.5c0-1.3,2.1-2.8,0.2-6.5c-1.3,0.9-1.6,0.9-2.6,0.9
				c-1.8,0-3.5-6.5-4-8.8l0.4-0.4c0.7,0.4,1.8,0.9,3.3,0.9c2.3,0,5.4-0.9,5.4-8c0-4.1-2.4-13.1-2.4-13.1c3.9-2.1,2.3-12.4,1.9-13.7
				c-0.5-1.3-3-10.1-0.8-16.3c-3.1,1.7-5.4,12.5-5.4,12.5c-1.2-5.3,4-10.6,4.3-19.4c0.2-5.1-3.8-9.2-3.8-9.2s0.7-2.6,2.1-2.6
				c1.4,0,1,4.5,1,4.5c2.1-0.8,3.1-2.6,3.1-5.1s-1.6-5.6-6.1-5.6c-4.4,0-6.7,4.6-6.7,8.2c0,3.6,2.6,10,2.6,10s-1.5,5.4-1.7,8.1
				c-0.3,4.7-0.5,10.2,1.4,17.3c2.4,7.2,6.3,17,6.3,23.9c0,1.8-0.8,2.5-0.8,2.5c-2.3-0.7-5.7-15.5-7-28.3
				c-0.8-4.9-1.6-10.7-1.7-14.1l-0.6-4.8l1.1,0.3c0.1-0.2,0.1-0.3,0.2-0.5c-0.2-1.5-0.8-5.6-0.8-7.6c0-2.6,0.3-14.6,1.1-18
				c1.1,1.8,6.3,2.1,6.3,2.1c-3.1-6.3-1.4-13.6-1.6-14.4c2.9,0.6,4.4-1.4,5.1-1.6c-3.3-2.1-2.9-5.8-3.4-6.1c0,0,1.6-0.7,2.4-1.5
				c0.5-0.5,1.6-3.3,1.6-4.8c0-1.6-0.4-3.8-1.5-4.2c0.9-0.8,1.4-1.9,1.4-3.4c1.5-1.4,1.8-6.1,2.1-6.7c-1.1,1.1-5.6,5-10.4,5
				c-1.8,0-2.4-0.3-3.9-0.3c-3.4,0-5.3,2.3-5.3,2.3c-3.5,0-7.1,1.2-7.1,1.2C96.9,19.4,96.9,26.6,99,30.3z"/>
			<path class="st1" d="M89.3,20.4c0,0,1-1,0.3-1c-1.3,0-1.7-1.8-0.8-1.6c1,0.1,1-0.1,0.2-0.8c-0.6-0.6,0-1.1,1.3-1.1
				c0.8,0,1.8,0.5,1.8,1.7s-4.2,5.8-2.6,10.6c1.9,6,7.1,5.3,9.8,5.8c1.7,0.3,5.2,1.4,5.1,1c-0.4-0.7-5-1.5-4.2-1.7
				c0.2,0,4.6,1,4.5,0.8c-0.5-0.6-3.5-1.8-4-2c-1.5-0.6-6-2.3-6.5-2.1s5.3,2,5.2,2.4c-0.1,0.3-0.9,0.4-3-0.3
				c-2.4-0.7-4.7-2.8-4.7-5.7c0-2.6,0.3-3,0.5-3.9c0.6-4.3,0.6,3.3,0.9,2.8c0.3-0.4,0.5-1.8,0.8-2.8c0.5-1.3,1.2-1.7,1.2-3.5
				c0-3.3-3.1-4.3-4.7-4.3c-1,0-3.6,0.6-3.4,3.2C87.1,20.5,89.3,20.4,89.3,20.4z M87.1,34.4c0,0.1-1.4,0.7-1.6,0.1
				c-0.1-0.2,0.8-0.6,0.8-0.9c0.1-0.8-0.2-1.7-0.3-1.6c-0.9,1.3-2.4,0.5-2.5,5.4c0.7-2.3,3.6-1.4,4.1-2c0.4-0.5-0.4-4.7-0.9-5.7
				C86.7,30.4,87.3,34,87.1,34.4z M99.7,30.6c1.9,0.2,3.6,0.8,3.7,0.3c-0.4-1.2-0.9-1.4-1.5-1.5C100.5,29.1,100.6,30.4,99.7,30.6z
				 M75.8,37.2c-0.4-1-2.2-2.2-2.2-3c-0.8,5.7,2.6,7.7,2.2,8.3c-0.6,1-2.5-1.9-2.5-1.9c-1.1,4.4,2.9,7.8,2.9,7.8
				c-0.2,1.5-2.6-0.8-2.6-0.8c-1.3,3.8,3.2,7.8,3.2,7.8c0,0.9-3.2-1.4-3.2-1.4c0,4.3,3,6.5,3,7.1c0,1.1-1.6-0.2-1.6-0.2
				s0.2,3.5,3.8,6.2c-0.1,0.8-2.3-0.5-2.3-0.5c0.4,0.8,0.5,4.4,2,4.7s3,0.1,3.5,0.5s1.7,2,2.1,0.2c-1.5-1.6-3.1-4.1-3.1-8
				c0-4.3,0.8-6.7,3.8-8.9c-0.5-3.1-1.1-8.5-1.7-11.1c-0.7-2.6-0.6-4.9-0.4-10.8c0-1.8,3.9-4.2,3.9-4.2c-1.5-4.3-5-7.1-6.5-8
				c1.5,1.6,3.2,3.1,5.2,6.5c0,0-1.2,1.6-1.7,1.2c-0.9-0.9,0.9-1.3-0.2-2.7c-1-1.3-5.9-6.1-5.9-6c0.1,0.8,3.6,5.6,2.4,7.1
				c0,0,1.8,1.8,2,2.8c-0.4,0.6-0.9,9-1.1,10c-0.6-3.1,0-10.6,0-10.6c-2.7-2.7-2.5-2.1-5-3.4c-0.3-0.1,3.5,3.1,3.2,3
				s-0.2,6.6-0.9,4.7c-0.2-0.6-0.8-4.8-0.8-4.8c-1.8-2.1-4.8-4.3-4.8-4.5c-0.1,1.7,3.1,5.9,4.1,12.5C76.5,37.3,76.3,38.2,75.8,37.2z
				 M86.5,52.4c0,0.7,2.4,1.6,9.5-2.3c7.1-3.9,9-9.6,8.8-9.8c-0.1-0.1-1.3,2.1-2.7,3.7c-1.5,1.7-3.2,2.8-3.4,2.7
				c-0.1-0.1,1.5-1.6,2.7-3.2c1.1-1.5,1.8-3.2,1.6-3.4c-0.3-0.2-4,6.1-8.9,6.1c-3,0-5.2-3.7-3.1-6.5c-0.4-0.4-4.2,0.8-4.2,6.3
				c0,3.4,2.3,3.1,2.3,3.8C87.8,50.3,86.5,51.7,86.5,52.4z M98.6,26c0.6,3.2,6.7,0.1,7.1,6.9c0.2,3.4-2.8,4.9-5.3,4.9
				c-2.1-0.1-2.5-0.5-2.5-0.5s-0.6,1.1-2,2.4c-1,0.9-1.5,1.8-1.5,1.8s0.4,0.5,2.5,0.1c3.1-0.6,4.6-2.7,7.8-2.7c1,0,1.1,1.6,2,1.6
				c-0.1-0.5,0.6-1.5,1-2s0.9-1.6-0.2-2.3c0.2-0.9,1.4-0.7,1.5-1.3c0,0-2.9-2.2-2.9-5.7c0-0.8,0.7-1.2,1-1.2s0.9,0.1,0.9,0.6
				c0,0.6-0.8,0.7-0.8,2.1c0,2.7,3.2,3.6,3.2,4.4c0,0.8-1.5,1-1.5,1l-0.1,4.5c-1.4,4.1-4.2,8-5.4,8.9c0.6-0.5,3.5-6.6,3.2-6.9
				c-0.3-0.2-2.8,5.1-5,6.3c0.4-0.3,4.3-6.7,3.9-7c-0.2-0.2-2.8,4.2-6.7,7.5c-3.2,2.6-7.5,4.1-11.2,4.7c1.7,2.2,6.1,1,6.1,1.8
				c0,1.1-1.8,2.3-1.8,5c0,4.2,1.9,8.4-0.2,12c7.4-4.4,8.4-10.8,8.8-11.8c0,0-2.5,1.5-6,1.5c-1.1,0-1.8-0.6-1.8-0.9
				c5.8-3.8,11.5-10.8,11.9-11.6c0.6-0.2,2.4-3.4,3.6-6c1.3-2.6,2.2-3.7,2-3.2s-1.4,5.7-5.9,11.5c-3.1,4.1-9,8.8-9,8.8
				s4.2,0.2,6-1.7c0.5-0.1,0.9,0.1,0.9,0.5s-0.9,0.5-0.9,1.8c0.1,7.1,7.6,12.7,8.7,13c0,0-1.2-3.2-1.2-7.3c0-3.7,0.8-12.6,1.6-17.7
				c0.2-1.1-0.6-2.2-0.4-2.8c0.2-0.6,0.2-0.4,0.5-0.4c0.7,0,0.6,3.5,5,4.3c-2.3-5.8-0.8-12.2-0.8-12.5c0-1-0.8-1.4-0.5-2.3
				c0,0,1.2,0.7,2.7,0.7s2-0.5,2-0.5c-2.5-2.4-2.5-4.9-2.5-5.3c0-0.4-0.7-0.9-0.7-1.3s0.2-0.4,0.2-0.4c0.8,0.5,1.9-0.5,2.7-0.4
				c0-0.9,1.4-1.7,1.6-4.8c0.2-3.1-1.1-3.5-2.2-3.5c-0.8,0-1.3,0.4-1.7-0.1c0.6-0.5,3.8-1,3.8-3.6c-2,1.8-5,1.1-7,1.9
				c0,0-0.4-0.1-0.4-0.5c1.8-1.5,7.7,0.6,8.8-5.2c-1.4,1.1-4.9,3.2-8.1,3.2c-1,0-2.6-0.3-4.1-0.3c-2.9,0-4.3,1.4-4.6,2.2
				c0,0-3.9,0-6.1,0.7C99.1,20,98.2,23.7,98.6,26z M117.3,21.8c0.6,0,1,0.3,1.2,0.1c-0.2,0.5-1.9,2.4-3.2,2.4
				c-0.3,0-0.4-0.2-0.4-0.2C115.1,23.3,116.7,21.8,117.3,21.8z M116.8,24.2c0.4,0.2,1.2,0,0.9,0.6s-0.8,1.5-0.8,1.5s0.3,0.3,0.5,0.2
				c0.1-0.1,1.1,0.2,1.4,0c-0.2,0.5-0.5,2.5-2.7,2.5c-1.3,0-1.5-1.2-1.5-1.6C114.5,26.1,116.8,24.5,116.8,24.2z M106.8,19.3
				c2.8,0,3.6,4.2,6.2,3.5c-0.5,1-2,0.5-2.5,0.8c-0.6,0.3-1.3,1.1-2.8,1.1c-1.6,0-2.3-0.7-3.8-0.7c-0.8,0-1.5,0.5-1.5,0.5
				s0.1-1.1,1.6-1.1s2.2,0.3,3.7,0.3s2.3-0.9,2.3-0.9c-1.1-0.2-2-2.7-3.2-2.7c-0.7,0-1.4,0.7-1.4,0.7c0.2,0.2,1-0.3,1.4-0.3
				c1.3,0,1.2,2.2,1.4,2.2c-0.5,0.1-0.6,0.3-1.7,0.3c-1.1,0-2.2-0.6-2.4-0.5c0.2-0.2,0.1-0.5,0.6-0.5s1,0.2,1-0.2s-0.8-0.4-0.7-0.7
				c-0.4,0.3-1.1,1.4-1.7,1.4c-0.6,0-0.6-0.3-0.6-0.3C103.5,22.3,104.5,19.3,106.8,19.3z M101,20.1c0.1-0.4,0.7-0.2,0.8-0.4
				c0.2,1-1.2,1.6-1.5,1.9c-0.3,0.4-0.2,0.9-0.7,0.9s-0.4-0.3-0.4-0.5s0.3-0.6,0.3-1c0-0.3-0.3-0.5-0.3-0.5
				C99.6,20.2,100.8,20.2,101,20.1z M102.4,36.4c-0.9-0.2-1.3-0.7-2.1-0.7s-1.3,0.7-1.7,0.7C100.2,36.7,101,37.5,102.4,36.4z
				 M73.7,103.7c0.2-0.1,1.7-4.5,1.8-4.7c0,0,0.2-0.4,0.6-1c0.3-1.2,0.3-0.8,0.7-2.6c-1.8,0.5-4.3-1.1-4.3-1.1
				c-0.6,0.3,2.7,2,2.3,2.4C72.1,99.7,73.7,103.7,73.7,103.7z M73.7,103.7c0.2-0.1,1.7-4.5,1.8-4.7c0,0,0.2-0.4,0.6-1
				c0.3-1.2,0.3-0.8,0.7-2.6c-1.8,0.5-4.3-1.1-4.3-1.1c-0.6,0.3,2.7,2,2.3,2.4C72.1,99.7,73.7,103.7,73.7,103.7z M98.6,168.8
				c-0.5-0.5-1-1.9-1.3-2s-2.7,3.7-1.6,8.4c0.1,0.4,0.2-1.7,0.3-2.3C96.5,170.4,97.1,169.8,98.6,168.8z M93.6,166.1
				c0.9-1.1,3.3-3.5,4.2-4.3l-2.1,0.9C95.1,163.4,94,164.6,93.6,166.1z M102.9,175.2c-0.5-0.4-1.8-1.6-1.8-1.6s0.4,5.5,2.5,6.8
				C103.1,179.4,102.4,177.3,102.9,175.2z M76.7,99.4c-0.9,2.9-2.1,6-4.2,7.6c0,0,0.8,0.1,1.1,0.2c0.6-0.5,2.3-3.5,2.9-4.1
				c-0.2,0.8-1.6,4.2-2.2,4.9c0.1,1.4,1.4,6.1,2.3,8c0-1.6,0.5-4.2,1.1-4.4c-1.1-1.1-1.3-3.2-2-3.4c0.9-2,2.5-6.4,2.5-7.5
				s0.9-4.1,1.2-3.8s-1.2,8.1-2,9.9l0.9,0.5c0,0,0.9-3.6,2-5.9c0.3,1.9-1.1,6.3-1.1,6.3c1.2,2.6,2.9,4,4.2,4.1
				c-1.9-3.2,1.2-7.3,0.2-9.7c0.4-1.1,1.7,0.8,2,1.9c0.2,1,0.2,1.4,0.2,1.4s1-1.7,1-4.1c0-2.4-0.8-3.5-0.8-4.4c1,0,1.8,1.8,1.8,2.8
				c0,0.8,2.4,0.4,3-3.4c0.3-2.2-2.3-3.8-2.3-3.8s3.7,0.5,3.6,2.5c0.8-0.7,2-2.5,0.3-5s-1.6-2.7-0.3-2.1c1.3,0.6,2,2.1,2,2.9
				c0.5,0.4,1.5-1.7,1.1-3.8c-0.5-2.2-2-3.9-2-3.9c1.1-1.3,2,1.4,2.9,1.6c-0.2-2.8,3.8-4.7,3.8-4.7c0.6-1.1,1.1-3.9,2-5.3
				c1.2-1.7,2.8-1.8,2.8-1.1c-2.6,0.4-2.7,4.6-3.1,5.4c0.5-0.1,1.9,0.4,0.9,0.9s-2.8,0.7-3.2,2.2c2.1-0.4,3.7-1.2,3.8,0.1
				c-2,1.2-4.3,0.6-4.3,2.1c0,0.6,1.7,1.1,1.7,1.1s3.3,4.2,3.3,9.4c0,6-1.5,6.6-1.5,7.5s2.7,2.7,2.4,4.7c1.6-3.2,0.6-8.3,1.4-8.9
				c2.7,7.2-4.4,17.5-4.4,22.2c0,15.4,9.1,14.2,9.1,24.3c0,1.6-0.8,2.8-0.8,2.8c-1,0,0.5-3.4-1.4-3.5c-2.9,3.8-2.4,16-3.6,20.5
				c-1.1,0.1-1.9,0.1-2.5,0c-1.2-0.8-2.8-2.1-3.6-2.7c-0.9,0.8,2,2.8,1.5,2.8c-0.2,0-2.4-1.6-2.7-1.5c-1.3,0.7-2.2,1.4-3.3,3.3
				s-1.5,3.8-1.4,5.7c0.4,0,2.1-5.6,4.1-6.9c0,0,0.2,0,0.6,0l0,0l1.6,0.1l0,0c0.2,0,1,0.1,1.9,0.1l3.1,0.1v0.5
				c-1.4-0.4-5.2,0.3-6.2,0.3c0.2,0.6,1,1.5,1.2,1.8c0.9,0,3.6-0.6,5.2-1c-0.2,1.3-5.1,1.8-5.1,1.8c-4.2,2.5-1.8,11.4-1.8,11.4
				s0.5-1.4,0.7-2.2c0.2-0.6,0.3-2.6,1-3.2c0.8-0.6,1.4-2.2,1.1-3c6.3-3.8,6.1-6.9,6.9-6.6c0,2.8-6,7.3-6,7.3l1.6,1.3
				c0,0,2.7-3.4,3.1-3.4c0.2,0-0.5,0.8-1,1.6c-0.7,1-0.9,1.4-1.7,2.4c0.3,1.5,0.3,5.8,3,7c-0.2-0.4-0.3-2.8-0.1-4.7
				c1-1.8,2.1-2.4,2.5-3.7c0.8-1.7,2.1-4,2.1-4c1,1.8,2.9,2.6,2.9,2.6s-1-2.3,0.6-3.7c1.6-1.4-2.8-4.9-2.8-4.9s1.6-0.8,2.5,0.4
				c0.9,1.1,1.1,2.1,1.5,2.3c0.4,0.2-0.1-2,0.7-2.8s-0.5-3.9-2.8-4.3c1.2-1.4,3.2,0.8,4.1,0.8c0.1-0.9,1.4-2.3,0.4-3.5
				c-1-1.1-2.5-2.7-2.5-2.7c1.7-0.8,2.6,1.1,3.7,0.9c0-1.1,1.1-2.2-0.4-3.6s-2.1-1.7-2.1-1.7s1.9-0.2,3.5,0.9
				c-0.4-1.9,0.1-3.2-1-4.3c-0.8-1-2-1-2-1c0.2-1.7,2-0.2,2.8-0.5c-1-1.3,1.3-3.6,0.6-5.6c-5.6,2.6-6.5-7.8-7.4-8.3
				c0.2-4.1-2.1-16-2.3-18.8c-0.2-3.2,0.2-4.7,0.5-2.4c0.1,0.9,1,4.1,1.4,7.8c0.6,5.2,0.8,11.1,5.1,11.1c4.5,0,4.5-4.7,4.5-6.9
				s-2.4-11.8-2.4-13.3c2.1-1.9,2.6-5.3,2.6-8.1c-0.5,0.7-2.9,3.7-2.9,4.5c-0.9-1.5,2.6-4.5,2.5-6.4s-0.8-3.8-0.8-3.8
				c-0.1,0.5-0.9,2.6-1.4,4.3c-0.3,1.2-0.4,2.3-0.6,2.3c-0.6,0-0.2-2.3,0.1-3.3c0.2-0.6,1.6-3,1.6-5.3c0-7.2-1.5-5-0.4-9.2
				c-1.7,2.6-3.2,8.1-3.2,13.8c-0.3-0.7-0.5,0.8-0.8,0.1c-0.6-1.9-0.9-5.9-0.9-8.5c0-2.4,4.1-10.4,4.1-16.7s-4.9-9-5.1-11.5
				c-0.2-2.5,1.9-3.6,1.9-3.6c-1.7,2.1-0.1,4.4-0.1,4.4c1.1-2.9,5-4.2,5,0.8c1.4-1.2,1.4-6.7-4.1-6.7c-4.3,0-5.2,5.1-5.2,7.1
				c0,5.6,5.1,11.9,5.1,15.2c0,3.8-2,7.1-2,8.1c-0.1-1.9,1.3-7.1,1.2-8.6c-1,1-1.5,5-2,5.9c-0.1-1.7,0.7-7.4,1.1-8.4
				c-0.8,1.4-2.4,5.6-2.3,6.9c-0.2-0.9,1.1-6.9,1.3-8.7c-0.7,2-2.2,6.7-2.2,13.9c0,9.8,8.3,24.6,8.3,34.6c0,3.2-1.4,4.1-2.2,4.1
				c-6.2,0-10.6-49.5-10.6-49.5c-3.3-2.7-7.4-9.5-7.4-9.5l-0.7-0.3c0,0-2.2,4-5,6.4c-1.3,1.1-3.8,2.3-5.4,3.3
				c-1.6,1-2.3,1.9-2.3,1.9l-1.2-0.4c0,0,2.1-2.2,3.2-3c1.1-0.8,2-3.1,2-5.1s-0.8-4.9-0.8-6.9c0-2.7,1.3-4.9,0.8-5
				c-1.5-0.5-3.8-1.3-4.9-1.8c-0.8,2-2.3,1.8-3,3.3c-0.9,1.9-1.1,4.6-1.1,7c0,3.6,1.5,4.7,2.2,4.7c0.4-0.8,0.6-3.5,1.5-5.9
				c0.8-2.2,2.3-3.7,2.5-4.3c0.5,0.8-1.2,2.5-1.7,6c-0.8,4.8-4.9,14.4-6.1,18.6C79.7,89,77.4,97.8,76.7,99.4z M90.8,147.8
				c4.9,0,5.3-2,5.9-2c0.5,0,0.7,0.4,0.7,0.7c0,0.3-1.4,0.8-1.5,1.5c3.8,0.7,5-1,6.5-0.9c0-1.6-2.2-2.2-2.2-3.5
				c0-2.1,1.9-3.2,1.9-3.2c0-5.9-4.4-2.5-4.4-14.9c0-4.8,0.7-9,1.7-9.5c-3.2,0.4-2.3,10.9-2.3,10.9s-0.2,1.1-0.7,0.9
				c-0.5-0.2,0.2-1.1-1-1.1c-0.9,0,0.3-1.1,0.8-0.8c0.5,0.2,0.1-1.4-0.4-1.4c-0.8,0-1.2-1.2,0-1.2c0.9,0,0.5-1,0.1-1.3
				c-0.5-0.3-1.6-0.8-0.2-1.3c0,0,0.5-0.8-0.2-1s-0.1-0.8-0.2-1.5c0.8,0.4,1.3,0.4,1.3-0.8c-0.1-1.8,4.4-5,5.8-3.6
				c0.7-0.8-0.1-1.1-0.1-2.2c0-1.1,0.8-3,0.8-3c1,0-0.5,3,0.5,3c0.1-1.1,1-3,0.5-3.7s-0.3-1-0.9-2.4c-0.5-1.2-1.6-1.4-1.6-1.4
				c-1.2,0.4-5,1.8-10.4-1.5c0,0-0.6-0.2-1,0.9c-0.5,1.6-0.8,5.4-0.8,13.3c0,12.2,4.7,18.2,4.7,19.1s-2-1.2-3.9-1.2
				c-5.2,0-8.4-0.2-11.7-5.3l-1.3,0.2l3,3.3c-1.1,0-3.6-2.8-3.6-2.8s-5.3,2.9-5.3,4.7c0,1.7,0.6-0.7,2.1-0.6
				c1.7,0.1,3.8-1.7,4.3-1.4c0.2,0.1,1.1,1.4,2.8,2.1c2.9,1.2,7.7,2.1,7.1,2.3c-1.8,0.4-10.5-1.8-11.6-2.2l-2.6,1.4
				c0.7,0.2,6.3,1.6,5.9,1.7c-1.8,0.3-6.4-1.4-6.6-1.1c0,5.4,1,7.1,1,7.1c0.4-2.7,0.6-4.8,1.4-4.7c1.9,0.2,5.9,0.3,5.9,1.8
				c0,1.3-4,1.4-3.9,2.4c1.1,0.2,4.4,0.7,5.1,0.3c0.7-0.4,2.3-1.1,2.3-0.5c0,1.2-2.6,1.3-2.6,1.3s1.1,0.9,3,0.9c2,0,2-1.1,2-1.1
				c3,0-1,1.4-1.1,1.8c0.9,0.2,4,0.5,4.6,0.1c0.6-0.5,2.1-1.4,2.4-0.9C93.1,146.1,91.3,147.2,90.8,147.8z M81.7,128.6
				c-1.1,0.8-1.7-1-3.6-0.2c1.8,0.5,2.4,1.9,3.7,2.5c-0.3-1.2,1.1-2.6,1.1-2.6s-0.6-2.5-4.5-1.2C80.1,127.4,81.4,126.7,81.7,128.6z
				 M72.5,131.8c2.5-3,4.8-3.3,4.8-3.3c-0.1-0.2-0.1-1.1-1.6-0.5C74.6,128.5,73.6,129.5,72.5,131.8z M79.7,110.2
				c-0.4-1-0.8-1.8-1.6-1.8s-1.1,0.1-1.1,0.1c1,1.6,2.7,3.6,2.7,3.6s2.2,0.2,3.5,0.6C81.8,111.9,80.1,111.2,79.7,110.2z M73.6,96.4
				l-1.4-1.1c0,0-0.7,2,0.4,5C72.9,97.4,72.6,97.4,73.6,96.4z M73.6,108.4c0,0-0.9-0.2-1.3-0.5c-0.1,1.3,0.9,5.1,3,7.4
				C73.5,111.3,73.6,109.9,73.6,108.4z"/>
		</g>
	</g>
</g>
</svg>
